<?xml version="1.0" encoding="UTF-8" standalone="no"?>
<!-- Created with Inkscape (http://www.inkscape.org/) -->

<svg
   xmlns:dc="http://purl.org/dc/elements/1.1/"
   xmlns:cc="http://creativecommons.org/ns#"
   xmlns:rdf="http://www.w3.org/1999/02/22-rdf-syntax-ns#"
   xmlns:svg="http://www.w3.org/2000/svg"
   xmlns="http://www.w3.org/2000/svg"
   xmlns:sodipodi="http://sodipodi.sourceforge.net/DTD/sodipodi-0.dtd"
   xmlns:inkscape="http://www.inkscape.org/namespaces/inkscape"
   width="500"
   height="300"
   id="svg2"
   version="1.1"
   inkscape:version="0.91 r13725"
   sodipodi:docname="zeppelin_in-cluster_spark-client.svg"
   inkscape:export-filename="/src/k8s/spark-docs/src/jekyll/img/zeppelin_in-cluster_spark-client.png"
   inkscape:export-xdpi="126"
   inkscape:export-ydpi="126">
  <defs
     id="defs4">
    <filter
       style="color-interpolation-filters:sRGB"
       inkscape:label="Greyscale"
       id="filter4264">
      <feColorMatrix
         values="0.21 0.72 0.072 0 0 0.21 0.72 0.072 0 0 0.21 0.72 0.072 0 0 0 0 0 1 0 "
         id="feColorMatrix4266" />
    </filter>
    <filter
       style="color-interpolation-filters:sRGB"
       inkscape:label="Greyscale"
       id="filter4268">
      <feColorMatrix
         values="0.21 0.72 0.072 0 0 0.21 0.72 0.072 0 0 0.21 0.72 0.072 0 0 0 0 0 1 0 "
         id="feColorMatrix4270" />
    </filter>
    <filter
       style="color-interpolation-filters:sRGB"
       inkscape:label="Greyscale"
       id="filter4272">
      <feColorMatrix
         values="0.21 0.72 0.072 0 0 0.21 0.72 0.072 0 0 0.21 0.72 0.072 0 0 0 0 0 1 0 "
         id="feColorMatrix4274" />
    </filter>
    <filter
       style="color-interpolation-filters:sRGB"
       inkscape:label="Greyscale"
       id="filter4276">
      <feColorMatrix
         values="0.21 0.72 0.072 0 0 0.21 0.72 0.072 0 0 0.21 0.72 0.072 0 0 0 0 0 1 0 "
         id="feColorMatrix4278" />
    </filter>
    <filter
       style="color-interpolation-filters:sRGB"
       inkscape:label="Greyscale"
       id="filter4280">
      <feColorMatrix
         values="0.21 0.72 0.072 0 0 0.21 0.72 0.072 0 0 0.21 0.72 0.072 0 0 0 0 0 1 0 "
         id="feColorMatrix4282" />
    </filter>
    <filter
       style="color-interpolation-filters:sRGB"
       inkscape:label="Greyscale"
       id="filter4264-3">
      <feColorMatrix
         values="0.21 0.72 0.072 0 0 0.21 0.72 0.072 0 0 0.21 0.72 0.072 0 0 0 0 0 1 0 "
         id="feColorMatrix4266-6" />
    </filter>
    <filter
       style="color-interpolation-filters:sRGB"
       inkscape:label="Greyscale"
       id="filter4268-7">
      <feColorMatrix
         values="0.21 0.72 0.072 0 0 0.21 0.72 0.072 0 0 0.21 0.72 0.072 0 0 0 0 0 1 0 "
         id="feColorMatrix4270-5" />
    </filter>
    <filter
       style="color-interpolation-filters:sRGB"
       inkscape:label="Greyscale"
       id="filter4264-3-2-2-9-6">
      <feColorMatrix
         values="0.21 0.72 0.072 0 0 0.21 0.72 0.072 0 0 0.21 0.72 0.072 0 0 0 0 0 1 0 "
         id="feColorMatrix4266-6-9-7-3-1" />
    </filter>
    <filter
       style="color-interpolation-filters:sRGB"
       inkscape:label="Greyscale"
       id="filter4264-3-2-2-9-0">
      <feColorMatrix
         values="0.21 0.72 0.072 0 0 0.21 0.72 0.072 0 0 0.21 0.72 0.072 0 0 0 0 0 1 0 "
         id="feColorMatrix4266-6-9-7-3-6" />
    </filter>
    <filter
       style="color-interpolation-filters:sRGB"
       inkscape:label="Greyscale"
       id="filter4264-3-2-2-9">
      <feColorMatrix
         values="0.21 0.72 0.072 0 0 0.21 0.72 0.072 0 0 0.21 0.72 0.072 0 0 0 0 0 1 0 "
         id="feColorMatrix4266-6-9-7-3" />
    </filter>
    <filter
       style="color-interpolation-filters:sRGB"
       inkscape:label="Greyscale"
       id="filter4264-3-2-2">
      <feColorMatrix
         values="0.21 0.72 0.072 0 0 0.21 0.72 0.072 0 0 0.21 0.72 0.072 0 0 0 0 0 1 0 "
         id="feColorMatrix4266-6-9-7" />
    </filter>
    <filter
       style="color-interpolation-filters:sRGB"
       inkscape:label="Greyscale"
       id="filter4264-3-2">
      <feColorMatrix
         values="0.21 0.72 0.072 0 0 0.21 0.72 0.072 0 0 0.21 0.72 0.072 0 0 0 0 0 1 0 "
         id="feColorMatrix4266-6-9" />
    </filter>
    <filter
       style="color-interpolation-filters:sRGB"
       inkscape:label="Greyscale"
       id="filter4264-3-7">
      <feColorMatrix
         values="0.21 0.72 0.072 0 0 0.21 0.72 0.072 0 0 0.21 0.72 0.072 0 0 0 0 0 1 0 "
         id="feColorMatrix4266-6-92" />
    </filter>
    <filter
       style="color-interpolation-filters:sRGB"
       inkscape:label="Greyscale"
       id="filter4280-0">
      <feColorMatrix
         values="0.21 0.72 0.072 0 0 0.21 0.72 0.072 0 0 0.21 0.72 0.072 0 0 0 0 0 1 0 "
         id="feColorMatrix4282-2" />
    </filter>
    <filter
       style="color-interpolation-filters:sRGB"
       inkscape:label="Greyscale"
       id="filter4276-3">
      <feColorMatrix
         values="0.21 0.72 0.072 0 0 0.21 0.72 0.072 0 0 0.21 0.72 0.072 0 0 0 0 0 1 0 "
         id="feColorMatrix4278-7" />
    </filter>
    <filter
       style="color-interpolation-filters:sRGB"
       inkscape:label="Greyscale"
       id="filter4272-5">
      <feColorMatrix
         values="0.21 0.72 0.072 0 0 0.21 0.72 0.072 0 0 0.21 0.72 0.072 0 0 0 0 0 1 0 "
         id="feColorMatrix4274-9" />
    </filter>
    <filter
       style="color-interpolation-filters:sRGB"
       inkscape:label="Greyscale"
       id="filter4264-3-2-2-9-0-6">
      <feColorMatrix
         values="0.21 0.72 0.072 0 0 0.21 0.72 0.072 0 0 0.21 0.72 0.072 0 0 0 0 0 1 0 "
         id="feColorMatrix4266-6-9-7-3-6-2" />
    </filter>
  </defs>
  <sodipodi:namedview
     id="base"
     pagecolor="#ffffff"
     bordercolor="#666666"
     borderopacity="1.0"
     inkscape:pageopacity="1"
     inkscape:pageshadow="2"
     inkscape:zoom="1.4871599"
     inkscape:cx="289.663"
     inkscape:cy="147.13853"
     inkscape:document-units="px"
     inkscape:current-layer="layer1"
     showgrid="false"
     inkscape:window-width="2000"
     inkscape:window-height="1170"
     inkscape:window-x="0"
     inkscape:window-y="24"
     inkscape:window-maximized="1"
     inkscape:snap-global="false"
     fit-margin-top="10"
     fit-margin-left="10"
     fit-margin-right="10"
     fit-margin-bottom="10" />
  <metadata
     id="metadata7">
    <rdf:RDF>
      <cc:Work
         rdf:about="">
        <dc:format>image/svg+xml</dc:format>
        <dc:type
           rdf:resource="http://purl.org/dc/dcmitype/StillImage" />
        <dc:title></dc:title>
      </cc:Work>
    </rdf:RDF>
  </metadata>
  <g
     inkscape:label="Layer 1"
     inkscape:groupmode="layer"
     id="layer1"
     transform="translate(-6.3260942,-576.71877)">
    <flowRoot
       transform="translate(6.3260942,576.71877)"
       style="font-style:normal;font-weight:normal;font-size:40px;line-height:125%;font-family:sans-serif;letter-spacing:0px;word-spacing:0px;fill:#000000;fill-opacity:1;stroke:none;stroke-width:0.25;stroke-linecap:butt;stroke-linejoin:miter;stroke-miterlimit:4;stroke-dasharray:none;stroke-opacity:1"
       id="flowRoot4294"
       xml:space="preserve"><flowRegion
         id="flowRegion4296"><rect
           y="68.70874"
           x="19.824965"
           height="81.333191"
           width="68.116547"
           id="rect4298"
           style="stroke-width:0.25;stroke-miterlimit:4;stroke-dasharray:none" /></flowRegion><flowPara
         id="flowPara4300">asdfasdf</flowPara></flowRoot>    <g
       style="stroke-width:1.27932858;stroke-miterlimit:4;stroke-dasharray:none;filter:url(#filter4272-5)"
       id="g4163"
       transform="matrix(0.195415,0,0,-0.195415,153.43629,742.23734)">
      <g
         id="g4165"
         transform="scale(0.1,0.1)"
         style="stroke-width:12.79328632;stroke-miterlimit:4;stroke-dasharray:none">
        <path
           d="m 2840.22,800.078 c -2.68,5.723 -3.89,8.61 -5.35,11.379 -38.9,73.957 -77.71,147.969 -116.96,221.743 -3.96,7.41 -3.47,11.82 1.95,18.15 61.87,72.28 123.42,144.85 185.04,217.35 2.16,2.54 4.11,5.26 4.94,9.78 -18.02,-4.71 -36.04,-9.36 -54.04,-14.13 -74.76,-19.81 -149.54,-39.56 -224.23,-59.64 -6.97,-1.87 -10.13,0.17 -13.59,5.94 -42.45,70.91 -85.14,141.67 -127.78,212.46 -2.21,3.68 -4.58,7.25 -9.27,10.34 -3.43,-18.89 -6.92,-37.77 -10.28,-56.67 -11.88,-66.72 -23.72,-133.46 -35.56,-200.19 -1.29,-7.2 -3.07,-14.37 -3.68,-21.63 -0.6,-6.89 -4.13,-9.43 -10.36,-11.39 -88.11,-27.66 -176.13,-55.59 -264.15,-83.49 -3.87,-1.22 -7.64,-2.8 -11.79,-6.57 72.01,-28.62 144.02,-57.237 217.14,-86.295 -2.66,-2.113 -4.39,-3.738 -6.34,-5.008 -45.02,-29.129 -90.11,-58.141 -135.02,-87.422 -5.37,-3.5 -9.64,-3.996 -15.68,-1.277 -53.77,24.215 -107.75,47.972 -161.6,72.023 -24.18,10.797 -45.93,25.141 -62.87,45.856 -38.29,46.843 -30.73,100.133 20.29,132.683 16.7,10.65 35.65,18.64 54.56,24.81 86.29,28.11 172.91,55.22 259.49,82.42 7.25,2.27 10.62,5.52 11.97,13.38 11.53,66.79 23.5,133.51 35.53,200.2 6.44,35.66 9.86,72.24 27.22,104.92 6.66,12.56 14.65,24.87 24.15,35.4 34.36,38.14 82.33,39.62 118.67,3.28 12.26,-12.26 22.81,-26.73 31.92,-41.57 40.04,-65.27 79.42,-130.96 118.59,-196.76 4.63,-7.78 8.81,-9.35 17.38,-7.05 96.54,25.88 193.18,51.36 289.82,76.89 19.93,5.26 40.09,7.2 60.55,3.37 44.54,-8.34 64.01,-42.25 48.94,-85.27 -6.86,-19.61 -18.69,-36.16 -32,-51.8 -67.43,-79.3 -134.75,-158.69 -202.41,-237.79 -5.53,-6.46 -5.65,-11.14 -1.82,-18.36 40.36,-76.077 80.37,-152.339 120.53,-228.527 9.61,-18.242 16.94,-37.16 17.16,-58.101 0.48,-47.629 -34.35,-86.606 -81.68,-93.543 -26.51,-3.895 -51.14,1.769 -75.98,9.441 -60.53,18.711 -121.17,37.11 -181.84,55.356 -5.62,1.683 -7.77,3.882 -8.76,9.941 -6.98,42.695 -14.59,85.297 -21.95,127.934 -0.21,1.172 0.14,2.437 0.32,5.047 69.07,-19.055 137.54,-37.942 208.83,-57.61"
           style="fill:#e25a1c;fill-opacity:1;fill-rule:evenodd;stroke:none;stroke-width:12.79328632;stroke-miterlimit:4;stroke-dasharray:none"
           id="path4167"
           inkscape:connector-curvature="0" />
        <path
           d="m 2722.2,178.23 c -54.59,0.098 -109.18,0.348 -163.78,0.129 -7.2,-0.019 -11.29,2.082 -15.31,8.211 -64.63,98.442 -129.55,196.692 -194.42,294.981 -2.07,3.129 -4.27,6.148 -7.94,11.41 -13.97,-106.16 -27.62,-209.949 -41.3,-314 -47.77,0 -94.59,0 -142.96,0 1.67,13.93 3.14,27.391 4.9,40.801 13.96,106.59 27.97,213.179 41.98,319.758 13.38,101.839 26.72,203.679 40.3,305.5 0.4,3.039 2.42,6.875 4.9,8.488 49.19,32.074 98.55,63.871 147.91,95.691 0.72,0.469 1.72,0.524 4.27,1.246 -14.93,-113.871 -29.75,-226.851 -44.57,-339.836 0.59,-0.398 1.17,-0.8 1.76,-1.211 77.44,85.844 154.89,171.688 234,259.372 2.29,-13.2 4.27,-24.497 6.21,-35.801 5.55,-32.367 10.87,-64.781 16.81,-97.082 1.2,-6.508 -0.53,-10.559 -4.87,-15.086 -50.08,-52.41 -99.97,-105 -149.9,-157.539 -2.18,-2.293 -4.27,-4.672 -6.75,-7.391 1.59,-2.551 2.95,-5 4.56,-7.269 86.13,-120.891 172.26,-241.762 258.46,-362.602 1.56,-2.191 3.81,-3.91 5.74,-5.852 0,-0.636 0,-1.277 0,-1.918"
           style="fill:#3c3a3e;fill-opacity:1;fill-rule:evenodd;stroke:none;stroke-width:12.79328632;stroke-miterlimit:4;stroke-dasharray:none"
           id="path4169"
           inkscape:connector-curvature="0" />
        <path
           d="m 1027.64,492.488 c -2.18,11.141 -3.74,27.5 -8.69,42.782 -23.938,73.871 -99.735,114.378 -178.188,96.117 -86.063,-20.028 -147.567,-87.688 -156.465,-175.508 -6.586,-64.957 28.394,-127.539 93.433,-151.027 52.399,-18.93 102.848,-11.012 149.688,17.078 62.086,37.25 95.762,92.55 100.222,170.558 z M 649.703,217.922 C 645.457,186.141 641.406,156.191 637.465,126.219 632.23,86.3789 627.008,46.5313 621.992,6.67188 621.406,2.01953 619.996,-0.03125 615,0 575.73,0.160156 536.461,0.121094 497.195,0.179688 c -0.894,0 -1.789,0.492187 -3.918,1.089842 2.375,18.80857 4.684,37.67187 7.153,56.51957 8.664,66.0819 17.308,132.1719 26.101,198.2419 10.055,75.547 18.02,151.457 30.895,226.52 22.804,132.914 135.562,247.457 267.879,275.976 76.711,16.547 150.125,8.891 217.095,-34.273 66.79,-43.047 105.1,-105.516 113.83,-184.094 12.35,-111.101 -28.54,-203.332 -107.46,-279.629 -51.793,-50.09 -113.805,-81.922 -185.332,-92.679 -73.684,-11.114 -142.946,1.179 -205.102,44.617 -2.285,1.59 -4.723,2.98 -8.633,5.453"
           style="fill:#3c3a3e;fill-opacity:1;fill-rule:evenodd;stroke:none;stroke-width:12.79328632;stroke-miterlimit:4;stroke-dasharray:none"
           id="path4171"
           inkscape:connector-curvature="0" />
        <path
           d="m 585.711,849.512 c -44.039,-32.785 -86.496,-64.387 -129.137,-96.129 -6.871,10.844 -13.027,21.644 -20.215,31.695 -18.5,25.852 -41.476,45.168 -74.894,47.512 -27.793,1.949 -51.563,-7.207 -70.481,-27.699 -16.921,-18.325 -19.132,-44.379 -3.32,-65.075 17.406,-22.781 36.457,-44.394 55.91,-65.484 32.246,-34.961 65.953,-68.582 97.992,-103.73 29.153,-31.973 52.391,-67.852 59.567,-111.571 8.535,-51.972 -1.832,-101.472 -26.418,-147.152 -45.496,-84.527 -117.141,-133.57 -211.723,-148.918 -41.769,-6.77 -83.426,-5.422 -124.183,6.578 C 84.7188,185.461 47.0703,220.91 22.8594,270.969 14.3047,288.668 7.76172,307.34 0,326.309 c 47.3555,25.339 93.3555,49.961 140.031,74.941 1.629,-3.891 2.766,-7.129 4.285,-10.16 7.957,-15.93 14.473,-32.852 24.332,-47.512 29.235,-43.469 76.457,-56.699 124.364,-35.207 12.304,5.52 24.156,13.309 34.25,22.258 30.871,27.402 36.66,65.551 13.808,100.031 -13.129,19.809 -29.55,37.57 -45.535,55.32 -38.203,42.43 -77.961,83.5 -115.281,126.692 -25.727,29.769 -43.207,64.488 -48.738,104.363 -6.043,43.535 2.664,84.617 25.32,121.27 56.324,91.105 138.172,138.5 246.43,134.574 61.718,-2.238 110.863,-31.098 149.011,-79.051 11.289,-14.183 21.868,-28.933 33.434,-44.316"
           style="fill:#3c3a3e;fill-opacity:1;fill-rule:evenodd;stroke:none;stroke-width:12.79328632;stroke-miterlimit:4;stroke-dasharray:none"
           id="path4173"
           inkscape:connector-curvature="0" />
        <path
           d="m 1631.44,360.398 c -7.18,-54.878 -13.95,-107.039 -20.99,-159.16 -0.36,-2.636 -2.43,-6.226 -4.68,-7.277 -106.56,-49.352 -246.88,-42.461 -334.39,56.918 -47.02,53.391 -66.75,116.762 -63.8,187.262 6.82,163.199 142.13,305.668 303.94,325.574 94.54,11.633 177.45,-13.902 241.5,-87.34 43.62,-50.031 63.8,-109.773 60.82,-175.703 -1.96,-43.551 -8.79,-86.91 -14.21,-130.262 -7.68,-61.398 -16.07,-122.719 -24.18,-184.07 -0.29,-2.18 -0.73,-4.34 -1.22,-7.11 -42.19,0 -84.13,0 -127.48,0 1.7,14.098 3.25,27.899 5.04,41.668 9.23,70.864 19.38,141.614 27.47,212.602 5.04,44.211 1.87,88.09 -18.35,129.039 -21.51,43.52 -57.57,66.539 -105,71.57 -98.16,10.391 -191.55,-57.82 -212.49,-154.418 -13.83,-63.769 7.97,-124.89 58.75,-158.679 49.5,-32.934 102.51,-33.043 156.45,-11.684 27.35,10.82 50.65,27.953 72.82,51.07"
           style="fill:#3c3a3e;fill-opacity:1;fill-rule:evenodd;stroke:none;stroke-width:12.79328632;stroke-miterlimit:4;stroke-dasharray:none"
           id="path4175"
           inkscape:connector-curvature="0" />
        <path
           d="m 2168.23,751.324 c -5.82,-44.199 -11.55,-87.738 -17.41,-132.179 -26.95,0 -53.38,0.156 -79.8,-0.055 -21.41,-0.168 -40.95,-13.988 -47.38,-33.981 -2.52,-7.82 -3.45,-16.187 -4.53,-24.39 -13.41,-101.489 -26.72,-202.981 -40.03,-304.481 -3.36,-25.59 -6.63,-51.199 -9.99,-77.179 -44.22,0 -87.81,0 -132.69,0 2.48,19.519 4.82,38.402 7.29,57.261 8.63,65.782 17.26,131.539 26,197.289 7.55,56.903 14.28,113.93 23.17,170.621 11.92,75.997 87.53,143.485 164.22,146.821 36.59,1.59 73.31,0.273 111.15,0.273"
           style="fill:#3c3a3e;fill-opacity:1;fill-rule:evenodd;stroke:none;stroke-width:12.79328632;stroke-miterlimit:4;stroke-dasharray:none"
           id="path4177"
           inkscape:connector-curvature="0" />
        <path
           d="m 2878.63,179.059 0,56.011 -0.32,0 -21.98,-56.011 -7.01,0 -21.98,56.011 -0.33,0 0,-56.011 -11.07,0 0,67.089 17.09,0 20.03,-50.968 19.71,50.968 16.94,0 0,-67.089 -11.08,0 z m -97.38,58.121 0,-58.121 -11.07,0 0,58.121 -21.01,0 0,8.968 53.09,0 0,-8.968 -21.01,0"
           style="fill:#3c3a3e;fill-opacity:1;fill-rule:nonzero;stroke:none;stroke-width:12.79328632;stroke-miterlimit:4;stroke-dasharray:none"
           id="path4179"
           inkscape:connector-curvature="0" />
        <path
           d="m 763.457,943.719 32.898,0 -7.757,49.808 -25.141,-49.808 z m 38.063,-32.18 -54.735,0 -17.387,-34.059 -38.761,0 85.5,159.73 37.367,0 29.113,-159.73 -35.933,0 -5.164,34.059"
           style="fill:#3c3a3e;fill-opacity:1;fill-rule:nonzero;stroke:none;stroke-width:12.79328632;stroke-miterlimit:4;stroke-dasharray:none"
           id="path4181"
           inkscape:connector-curvature="0" />
        <path
           d="m 997.352,1005.04 -19.5,0 -6.563,-36.876 19.484,0 c 11.757,0 21.157,7.738 21.157,22.313 0,9.633 -5.89,14.563 -14.578,14.563 z m -47.215,32.17 51.223,0 c 26.78,0 45.56,-15.97 45.56,-43.444 0,-34.536 -24.43,-57.782 -59.197,-57.782 l -22.075,0 -10.347,-58.504 -33.34,0 28.176,159.73"
           style="fill:#3c3a3e;fill-opacity:1;fill-rule:nonzero;stroke:none;stroke-width:12.79328632;stroke-miterlimit:4;stroke-dasharray:none"
           id="path4183"
           inkscape:connector-curvature="0" />
        <path
           d="m 1160.22,943.719 32.9,0 -7.76,49.808 -25.14,-49.808 z m 38.06,-32.18 -54.73,0 -17.39,-34.059 -38.76,0 85.5,159.73 37.36,0 29.12,-159.73 -35.93,0 -5.17,34.059"
           style="fill:#3c3a3e;fill-opacity:1;fill-rule:nonzero;stroke:none;stroke-width:12.79328632;stroke-miterlimit:4;stroke-dasharray:none"
           id="path4185"
           inkscape:connector-curvature="0" />
        <path
           d="m 1414.67,883.125 c -11.27,-5.164 -23.71,-8.234 -36.17,-8.234 -42.27,0 -68.83,31.722 -68.83,71.422 0,50.746 42.75,93.497 93.5,93.497 12.68,0 24.2,-3.05 33.59,-8.22 l -4.7,-38.301 c -7.04,7.761 -18.33,13.161 -32.42,13.161 -29.12,0 -54.96,-26.321 -54.96,-56.848 0,-23.25 14.56,-41.356 37.59,-41.356 14.1,0 27.71,5.406 36.87,12.922 l -4.47,-38.043"
           style="fill:#3c3a3e;fill-opacity:1;fill-rule:nonzero;stroke:none;stroke-width:12.79328632;stroke-miterlimit:4;stroke-dasharray:none"
           id="path4187"
           inkscape:connector-curvature="0" />
        <path
           d="m 1618.52,941.848 -69.53,0 -11.29,-64.368 -33.34,0 28.18,159.73 33.36,0 -11.27,-63.183 69.53,0 11.26,63.183 33.36,0 -28.17,-159.73 -33.36,0 11.27,64.368"
           style="fill:#3c3a3e;fill-opacity:1;fill-rule:nonzero;stroke:none;stroke-width:12.79328632;stroke-miterlimit:4;stroke-dasharray:none"
           id="path4189"
           inkscape:connector-curvature="0" />
        <path
           d="m 1740.85,877.48 28.17,159.73 88.57,0 -5.64,-32.17 -55.21,0 -5.62,-31.013 50.72,0 -5.62,-32.179 -50.75,0 -5.64,-32.184 55.21,0 -5.64,-32.184 -88.55,0"
           style="fill:#3c3a3e;fill-opacity:1;fill-rule:nonzero;stroke:none;stroke-width:12.79328632;stroke-miterlimit:4;stroke-dasharray:none"
           id="path4191"
           inkscape:connector-curvature="0" />
      </g>
    </g>
    <g
       style="stroke-width:2.40841079;stroke-miterlimit:4;stroke-dasharray:none;filter:url(#filter4276-3)"
       id="layer2"
       transform="matrix(0.10380289,0,0,0.10380289,223.13883,708.16842)">
      <path
         inkscape:connector-curvature="0"
         style="fill:#3071a9;fill-opacity:1;stroke:none;stroke-width:2.40841079;stroke-miterlimit:4;stroke-dasharray:none"
         id="path3051"
         d="m 335.36161,720.28571 c -37.79904,-0.14651 -79.70008,11.66535 -102.28125,25.59375 -8.44064,5.20631 -17.10168,11.03538 -25.78125,17.1875 0,0 -78.32109,60.30642 -102.65625,90.65625 -3.25932,4.06489 -6.226864,8.44672 -8.812504,13.0625 -0.17426,0.33135 -0.36018,0.66597 -0.53125,1 -0.24181,0.44442 -0.4844,0.89534 -0.71875,1.34375 -0.0555,0.1124 -0.10113,0.23107 -0.15625,0.34375 -3.84499,7.86016 -6.77515,16.37197 -8.21875,24.96875 -0.0121,0.0723 -0.0193,0.14639 -0.0312,0.21875 -0.0432,0.30199 -0.0852,0.60298 -0.125,0.90625 -1.30816,9.96867 -0.76941,20.60537 3.3125,29.625 4.96211,10.96458 13.221674,19.14834 25.187504,25.875 11.53936,6.48691 32.65625,12 32.65625,12 l -0.34375,0.15625 c 17.59942,3.12158 35.83078,2.0733 53.625,0.34375 8.72527,-0.84807 17.45409,-1.80839 26.1875,-2.90625 0.006,1.4e-4 0.0253,-1.4e-4 0.0312,0 0.0596,10e-4 0.24904,-10e-4 0.3125,0 -0.57556,-2.93081 -1.5052,-8.54301 -0.375,-8.84375 11.9624,-3.18311 19.08411,-5.10354 28.40625,-8.34375 8.91375,-3.09826 15.43712,-5.92124 22.65625,-9.90625 1.80388,-0.99575 3.2319,-2.65532 5.125,-3.46875 5.97713,-2.56827 12.63213,-3.17007 19.0625,-4.15625 5.13763,-0.78792 10.33455,-1.30429 15.53125,-1.40625 3.37073,-0.0661 6.78368,-0.14006 10.09375,0.5 2.5353,0.49024 5.09966,1.20031 7.3125,2.53125 1.48012,0.89024 2.85252,2.09538 3.8125,3.53125 0.51216,1.09134 0.93571,2.24019 1.34375,3.375 18.89889,-7.08135 38.0951,-15.61969 52.6875,-29.46875 21.58482,-20.48528 38.73456,-47.2581 47.21875,-75.78125 4.60898,-15.495 5.40926,-32.90691 1.03125,-48.46875 -2.70663,-9.62085 -6.8793,-15.81268 -16.1875,-25.25 -19.04117,-19.3053 -46.78078,-31.24429 -73.71875,-34.34375 -4.98707,-0.57381 -10.25639,-0.85407 -15.65625,-0.875 z m -128.0625,42.78125 c -3.86694,2.74091 -7.74622,5.54773 -11.59375,8.40625 l 11.59375,-8.40625 z m 81.53125,18.21875 c 12.24582,-0.0362 19.03125,1.84375 19.03125,1.84375 0,0 -20.14702,1.88019 -31.34375,3.875 -8.86862,1.58003 -23.13395,4.32673 -34.25,8.09375 -21.67503,7.34525 -42.29425,17.61508 -62.65625,28.0625 -15.65067,8.03011 -30.64712,17.30686 -45.625,26.53125 -10.2369,6.30457 -30.21875,19.6875 -30.21875,19.6875 0,0 17.02849,-22.00445 62.3125,-47.4375 12.948,-7.27204 26.16228,-14.09362 39.71875,-20.15625 10.59321,-4.73742 21.33402,-9.25275 32.4375,-12.625 8.43594,-2.56209 17.14133,-4.33678 25.84375,-5.75 6.34044,-1.02965 13.08066,-1.67808 19.15625,-1.96875 1.9676,-0.0941 3.84435,-0.15108 5.59375,-0.15625 z m -155.34375,21 c -4.01078,0.0236 -7.45011,4.73122 -9.5625,8.28125 -2.70692,4.54913 -3.90974,12.35592 -4.46875,18.59375 8.69096,-7.43321 17.36385,-14.34789 23.375,-19.03125 -2.32248,-3.90178 -5.23188,-7.27502 -8.53125,-7.78125 -0.27221,-0.0418 -0.54511,-0.0641 -0.8125,-0.0625 z m 175.09375,19.875 c 0,0 -37.81019,14.34794 -56.59375,21.84375 -21.63823,8.63501 -43.2082,17.4858 -64.625,26.65625 -14.98122,6.4148 -29.87653,13.04508 -44.6875,19.84375 -13.61663,6.25043 -40.625,19.25 -40.625,19.25 0,0 22.99883,-18.85478 65.65625,-37.5 24.89394,-10.88094 41.6801,-20.41394 68.46875,-29.15625 12.50865,-4.08212 24.85385,-8.67866 37.5,-12.3125 11.51657,-3.30926 34.90625,-8.625 34.90625,-8.625 z m 13.125,38.375 c 0,0 -5.30717,6.31971 -17.15625,14.15625 -5.92457,3.91828 -11.11912,8.02631 -16.9375,11.625 -7.53081,4.65783 -15.26098,8.9914 -23.21875,12.875 -9.864,4.81389 -20.10595,8.83787 -30.3125,12.875 -10.00493,3.95737 -20.06788,7.80627 -30.3125,11.09375 -12.63989,4.05611 -25.40243,7.80873 -38.375,10.625 -9.41293,2.04349 -28.53125,4.53125 -28.53125,4.53125 0,0 23.5908,-7.99177 35.34375,-12.125 12.4091,-4.36398 24.17628,-8.48209 37.125,-13.375 13.38528,-5.05787 22.95621,-8.74309 34.34375,-13.34375 9.31117,-3.76179 18.68636,-7.39808 27.78125,-11.65625 6.956,-3.25675 13.70697,-6.95086 20.46875,-10.59375 10.01976,-5.39811 29.78125,-16.6875 29.78125,-16.6875 z m 27.46875,24.78125 c 0,0 -0.31644,3.91995 -10.28125,14.125 -4.02327,4.12026 -11.11171,9.4374 -15.625,12.21875 -17.49169,10.77937 -26.8125,13.53125 -26.8125,13.53125 0,0 17.2683,-11.29466 25.625,-17.34375 4.92099,-3.56212 9.77228,-7.26516 14.4375,-11.15625 4.35657,-3.63364 12.65625,-11.375 12.65625,-11.375 z M 80.892856,922.66071 c -5.87528,2.64292 -12.95462,5.92162 -17.59375,8.40625 -8.60172,4.60691 -25.52718,12.66567 -24.96875,15.28125 0.8536,3.99813 20.01536,-3.73507 30,-5.71875 6.35259,-1.26209 12.66951,-2.5865 19,-3.9375 -2.55416,-4.4666 -4.77446,-9.16952 -6.4375,-14.03125 z m 234.218754,6.40625 c -2.54346,0.0163 -5.26205,0.16532 -8.5625,0.53125 -10.11079,1.121 -12.84772,2.02498 -20.9375,4.65625 -2.88213,0.93743 -4.58295,2.44474 -6.84375,3.6875 -4.06264,2.23323 -7.88923,4.92819 -12.125,6.8125 -6.08656,2.70765 -12.56199,4.44358 -18.9375,6.375 -5.25705,1.5926 -5.98423,1.90396 -15.90625,4.28125 -1.72225,0.41265 -0.1025,3.22615 1.4375,5.375 23.53934,0.47702 94.73733,1.61531 95.6875,-2.34375 l 5.25,-21.8125 c 0.4678,-0.16716 0.9384,-0.33002 1.40625,-0.5 -0.1972,-0.74965 -0.45229,-1.49989 -0.75,-2 -0.86788,-1.45793 -2.13443,-2.78104 -3.65625,-3.53125 -2.55739,-1.26071 -5.59251,-1.06119 -8.4375,-1.25 -2.68815,-0.1784 -5.08154,-0.2975 -7.625,-0.28125 z m 12.875,5.875 c 2.82142,0.0469 5.10871,0.47639 5.09375,1.875 -0.0322,3.01076 -6.50168,2.86285 -9.46875,3.15625 -19.13706,1.89235 -25.84825,1.57046 -38.78125,1.625 -2.4847,0.0105 -7.4375,-0.25 -7.4375,-0.25 0,0 12.42713,-2.94951 23.46875,-4.28125 6.42009,-0.77433 12.68164,-1.57478 18.84375,-1.78125 2.11379,-0.0708 5.45983,-0.39061 8.28125,-0.34375 z m -14.65625,12 c 2.30042,-0.044 4.60297,0.0279 6.875,0.34375 1.79675,0.24981 3.82399,0.3401 5.21875,1.5 0.62263,0.51777 1.3451,1.62663 1.09375,2.15625 -0.51067,1.07602 -2.43391,1.12729 -6.53125,1.40625 -4.91282,0.33448 -9.70383,0.73007 -14.5625,0.875 -12.04675,0.35934 -36.15625,-0.0625 -36.15625,-0.0625 0,0 7.51913,-1.9971 11.34375,-2.6875 8.53169,-1.5401 17.15905,-2.6589 25.8125,-3.1875 2.28962,-0.13986 4.60583,-0.29974 6.90625,-0.34375 z" />
    </g>
    <path
       transform="matrix(3.2219093,0,0,3.2219093,-781.62282,-1581.0745)"
       inkscape:export-ydpi="250.55"
       inkscape:export-xdpi="250.55"
       inkscape:export-filename="new.png"
       inkscape:connector-curvature="0"
       id="path3055-5"
       d="m 319.34933,683.73367 a 5.1801472,5.137755 0 0 0 -1.98518,0.50235 l -27.08929,12.94355 a 5.1801472,5.137755 0 0 0 -2.80281,3.48533 l -6.68311,29.07448 a 5.1801472,5.137755 0 0 0 0.7033,3.93918 5.1801472,5.137755 0 0 0 0.29449,0.40882 l 18.75012,23.31293 a 5.1801472,5.137755 0 0 0 4.05005,1.93321 l 30.0688,-0.007 a 5.1801472,5.137755 0 0 0 4.05005,-1.92975 l 18.7432,-23.31639 a 5.1801472,5.137755 0 0 0 1.00126,-4.34801 l -6.69351,-29.07448 a 5.1801472,5.137755 0 0 0 -2.80281,-3.48533 l -27.09276,-12.93662 a 5.1801472,5.137755 0 0 0 -2.5118,-0.50235 z"
       style="fill:none;fill-opacity:1;stroke:#000000;stroke-width:0.07759374;stroke-miterlimit:4;stroke-dasharray:none;stroke-opacity:1;filter:url(#filter4264-3-7)" />
    <path
       transform="matrix(0.73333674,0,0,0.73333674,13.773398,267.06714)"
       inkscape:export-ydpi="250.55"
       inkscape:export-xdpi="250.55"
       inkscape:export-filename="new.png"
       inkscape:connector-curvature="0"
       id="path3055-5-1"
       d="m 319.34933,683.73367 a 5.1801472,5.137755 0 0 0 -1.98518,0.50235 l -27.08929,12.94355 a 5.1801472,5.137755 0 0 0 -2.80281,3.48533 l -6.68311,29.07448 a 5.1801472,5.137755 0 0 0 0.7033,3.93918 5.1801472,5.137755 0 0 0 0.29449,0.40882 l 18.75012,23.31293 a 5.1801472,5.137755 0 0 0 4.05005,1.93321 l 30.0688,-0.007 a 5.1801472,5.137755 0 0 0 4.05005,-1.92975 l 18.7432,-23.31639 a 5.1801472,5.137755 0 0 0 1.00126,-4.34801 l -6.69351,-29.07448 a 5.1801472,5.137755 0 0 0 -2.80281,-3.48533 l -27.09276,-12.93662 a 5.1801472,5.137755 0 0 0 -2.5118,-0.50235 z"
       style="fill:none;fill-opacity:1;stroke:#000000;stroke-width:0.34090751;stroke-miterlimit:4;stroke-dasharray:none;stroke-opacity:1;filter:url(#filter4264-3-2)" />
    <g
       id="g4306"
       transform="translate(-4.4959573,-0.49955081)">
      <g
         style="stroke-width:0.57751495;stroke-miterlimit:4;stroke-dasharray:none"
         id="g4284"
         transform="matrix(0.43288921,0,0,0.43288921,311.70752,288.47141)">
        <path
           inkscape:export-ydpi="250.55"
           inkscape:export-xdpi="250.55"
           inkscape:export-filename="new.png"
           inkscape:connector-curvature="0"
           id="path3055"
           d="m 319.34933,683.73367 a 5.1801472,5.137755 0 0 0 -1.98518,0.50235 l -27.08929,12.94355 a 5.1801472,5.137755 0 0 0 -2.80281,3.48533 l -6.68311,29.07448 a 5.1801472,5.137755 0 0 0 0.7033,3.93918 5.1801472,5.137755 0 0 0 0.29449,0.40882 l 18.75012,23.31293 a 5.1801472,5.137755 0 0 0 4.05005,1.93321 l 30.0688,-0.007 a 5.1801472,5.137755 0 0 0 4.05005,-1.92975 l 18.7432,-23.31639 a 5.1801472,5.137755 0 0 0 1.00126,-4.34801 l -6.69351,-29.07448 a 5.1801472,5.137755 0 0 0 -2.80281,-3.48533 l -27.09276,-12.93662 a 5.1801472,5.137755 0 0 0 -2.5118,-0.50235 z"
           style="fill:#326ce5;fill-opacity:1;stroke:#ffffff;stroke-width:0.57751495;stroke-miterlimit:4;stroke-dasharray:none;stroke-opacity:1;filter:url(#filter4264)" />
        <path
           inkscape:export-ydpi="250.55"
           inkscape:export-xdpi="250.55"
           inkscape:export-filename="./path3059.png"
           sodipodi:nodetypes="ccccccccsccccscssccsccccccccscccsccccccccccccccscccscsccsccccscscsccccccccscccscsccccsccccscscscccccccccccccccscccsccccccccccccscccccscccccccccccccccccccccccscccscccccccccscccscccc"
           style="color:#000000;font-style:normal;font-variant:normal;font-weight:normal;font-stretch:normal;font-size:medium;line-height:normal;font-family:Sans;-inkscape-font-specification:Sans;text-indent:0;text-align:start;text-decoration:none;text-decoration-line:none;letter-spacing:normal;word-spacing:normal;text-transform:none;direction:ltr;block-progression:tb;writing-mode:lr-tb;baseline-shift:baseline;text-anchor:start;display:inline;overflow:visible;visibility:visible;fill:#ffffff;fill-opacity:1;stroke:#ffffff;stroke-width:0.57751495;stroke-miterlimit:4;stroke-dasharray:none;stroke-opacity:1;marker:none;filter:url(#filter4268);enable-background:accumulate"
           d="m 319.61776,693.62809 c -0.89545,9e-5 -1.62152,0.80664 -1.62141,1.80156 0,0.0153 0.003,0.0299 0.003,0.045 -10e-4,0.13519 -0.008,0.29804 -0.003,0.41574 0.0213,0.57384 0.14645,1.01304 0.22173,1.54173 0.1364,1.13156 0.25069,2.06956 0.18016,2.94139 -0.0686,0.32877 -0.31074,0.62943 -0.52661,0.83842 l -0.0381,0.68599 c -0.97305,0.0806 -1.9526,0.22824 -2.93101,0.45039 -4.21007,0.9559 -7.83487,3.12453 -10.59458,6.05256 -0.17907,-0.12217 -0.49236,-0.34692 -0.58552,-0.41575 -0.28948,0.0391 -0.58206,0.12842 -0.96314,-0.0935 -0.72561,-0.48843 -1.38646,-1.16263 -2.18613,-1.97479 -0.36641,-0.3885 -0.63174,-0.75843 -1.06708,-1.13291 -0.0989,-0.085 -0.24973,-0.20006 -0.36031,-0.28756 -0.34035,-0.27135 -0.74177,-0.41286 -1.12944,-0.42613 -0.49844,-0.0171 -0.97827,0.17781 -1.29228,0.57164 -0.55823,0.70016 -0.37951,1.77031 0.39843,2.39054 0.008,0.006 0.0163,0.0112 0.0242,0.0173 0.10689,0.0867 0.2378,0.19769 0.33606,0.27024 0.46196,0.34108 0.88395,0.51568 1.34424,0.78645 0.96974,0.59887 1.77367,1.09545 2.41132,1.69416 0.24901,0.26543 0.29253,0.73314 0.32567,0.93543 l 0.51969,0.46425 c -2.782,4.18669 -4.06953,9.35809 -3.30864,14.62731 l -0.67905,0.19748 c -0.17897,0.23111 -0.43187,0.59476 -0.69638,0.7033 -0.83428,0.26278 -1.77321,0.35927 -2.90676,0.47811 -0.53219,0.0442 -0.99137,0.0178 -1.55557,0.12473 -0.12419,0.0235 -0.2972,0.0686 -0.43308,0.10046 -0.005,10e-4 -0.009,0.003 -0.0138,0.003 -0.007,0.002 -0.0171,0.005 -0.0242,0.007 -0.95567,0.23091 -1.5696,1.10931 -1.37195,1.97479 0.19768,0.86567 1.13117,1.39211 2.09258,1.18487 0.007,-10e-4 0.017,-0.002 0.0242,-0.003 0.0109,-0.003 0.0204,-0.008 0.0312,-0.0104 0.13402,-0.0294 0.30197,-0.0621 0.41922,-0.0935 0.55469,-0.14851 0.95642,-0.36674 1.45511,-0.55779 1.07283,-0.38479 1.96139,-0.70624 2.82706,-0.83149 0.36155,-0.0283 0.74248,0.22308 0.93197,0.32913 l 0.70676,-0.12126 c 1.62642,5.04248 5.03487,9.11814 9.35081,11.67552 l -0.29448,0.70677 c 0.10614,0.27444 0.22321,0.64576 0.14414,0.91678 -0.31471,0.8161 -0.85377,1.6775 -1.4676,2.63784 -0.29722,0.44367 -0.60139,0.78799 -0.8696,1.29574 -0.0642,0.1215 -0.14592,0.30814 -0.20787,0.43653 -0.41673,0.89162 -0.11105,1.91856 0.68944,2.30393 0.80552,0.38779 1.80538,-0.0212 2.2381,-0.91464 6.4e-4,-10e-4 0.003,-0.002 0.003,-0.003 4.5e-4,-0.001 -4.4e-4,-0.003 0,-0.003 0.0616,-0.12667 0.14895,-0.29317 0.20095,-0.41228 0.22972,-0.52627 0.30616,-0.97728 0.46771,-1.48628 0.429,-1.07763 0.66471,-2.20834 1.25528,-2.9129 0.16172,-0.19293 0.42537,-0.26713 0.69872,-0.34031 l 0.36725,-0.6652 c 3.76257,1.44422 7.97417,1.83177 12.18134,0.87653 0.95976,-0.21791 1.88631,-0.49994 2.78203,-0.83842 0.10321,0.18308 0.29502,0.53501 0.34645,0.62362 0.27778,0.0904 0.58099,0.13704 0.82803,0.50236 0.44184,0.75488 0.74401,1.64792 1.11212,2.7266 0.16157,0.50899 0.24142,0.96002 0.47118,1.48628 0.0524,0.11996 0.13924,0.2888 0.20094,0.41575 0.4318,0.89633 1.43483,1.30674 2.24156,0.9181 0.80039,-0.38557 1.10641,-1.41241 0.68944,-2.30392 -0.062,-0.1284 -0.14714,-0.31504 -0.21133,-0.43653 -0.26824,-0.50774 -0.57237,-0.84861 -0.8696,-1.29227 -0.61389,-0.96031 -1.12303,-1.75807 -1.43779,-2.57416 -0.13161,-0.42091 0.0222,-0.68268 0.12473,-0.95622 -0.0614,-0.0704 -0.19278,-0.46786 -0.27024,-0.6548 4.48533,-2.64837 7.79369,-6.87601 9.34735,-11.75867 0.2098,0.033 0.57445,0.0975 0.69291,0.12126 0.24385,-0.16083 0.46807,-0.37068 0.90771,-0.33606 0.86567,0.12521 1.75421,0.44676 2.82707,0.8315 0.49869,0.19102 0.9004,0.41276 1.45511,0.56125 0.11724,0.0314 0.28519,0.0607 0.41921,0.0901 0.0108,0.003 0.0203,0.008 0.0312,0.0104 0.007,10e-4 0.0173,0.002 0.0242,0.003 0.96146,0.20699 1.89511,-0.31914 2.09258,-1.18487 0.19743,-0.86552 -0.41622,-1.74414 -1.37196,-1.97479 -0.13902,-0.0316 -0.33617,-0.0853 -0.47118,-0.11086 -0.5642,-0.10685 -1.02338,-0.0805 -1.55558,-0.12473 -1.13355,-0.11878 -2.07246,-0.21538 -2.90675,-0.47811 -0.34017,-0.13196 -0.58216,-0.53672 -0.69984,-0.7033 l -0.6548,-0.19055 c 0.3395,-2.45616 0.24795,-5.01238 -0.33953,-7.57003 -0.59295,-2.58147 -1.64085,-4.94248 -3.03841,-7.02264 0.16797,-0.15269 0.48517,-0.43358 0.57512,-0.51621 0.0263,-0.29094 0.004,-0.59597 0.30488,-0.91811 0.63762,-0.59875 1.44161,-1.09524 2.41132,-1.69416 0.46028,-0.2708 0.88577,-0.44535 1.34771,-0.78646 0.10447,-0.0771 0.24711,-0.19929 0.35685,-0.28755 0.77776,-0.62044 0.95683,-1.69053 0.39842,-2.39054 -0.55841,-0.70002 -1.64049,-0.76595 -2.41825,-0.14551 -0.11071,0.0877 -0.26092,0.20205 -0.36031,0.28756 -0.43532,0.3745 -0.70416,0.74439 -1.07055,1.13291 -0.79962,0.81219 -1.46055,1.48978 -2.18613,1.97825 -0.31441,0.18305 -0.77494,0.11971 -0.98393,0.1074 l -0.61669,0.43999 c -3.51652,-3.68744 -8.30435,-6.04498 -13.45975,-6.50295 -0.0144,-0.21605 -0.0333,-0.60657 -0.0381,-0.72409 -0.21105,-0.20196 -0.46601,-0.37438 -0.53007,-0.81071 -0.0705,-0.87183 0.0472,-1.80983 0.18362,-2.94139 0.0753,-0.52869 0.20037,-0.96789 0.22173,-1.54173 0.005,-0.13045 -0.003,-0.31973 -0.003,-0.46078 -1e-4,-0.99492 -0.72595,-1.80166 -1.6214,-1.80156 z m -2.03023,12.57631 -0.48157,8.50545 -0.0347,0.0173 c -0.0323,0.76091 -0.65854,1.3685 -1.42739,1.3685 -0.31495,0 -0.60566,-0.10114 -0.84189,-0.2737 l -0.0138,0.007 -6.97413,-4.9439 c 2.14343,-2.10769 4.88505,-3.66526 8.04468,-4.38266 0.57716,-0.13104 1.15407,-0.22828 1.7288,-0.29794 z m 4.06392,0 c 3.68888,0.45369 7.10038,2.12405 9.71458,4.68406 l -6.92908,4.91272 -0.0243,-0.0104 c -0.61502,0.4492 -1.48154,0.33774 -1.96093,-0.2633 -0.19638,-0.24623 -0.29942,-0.53575 -0.31181,-0.82803 l -0.007,-0.003 z m -16.36652,7.85758 6.36784,5.69572 -0.007,0.0347 c 0.57476,0.49967 0.65952,1.36674 0.18016,1.96786 -0.19637,0.24624 -0.45922,0.4114 -0.74142,0.48851 l -0.007,0.0277 -8.16247,2.35589 c -0.41544,-3.79883 0.47989,-7.49158 2.36975,-10.57033 z m 28.62062,0.003 c 0.94614,1.53355 1.6626,3.24637 2.08912,5.10327 0.42141,1.83464 0.52716,3.66599 0.35339,5.43588 l -8.20405,-2.36283 -0.007,-0.0347 c -0.73465,-0.20078 -1.18614,-0.94808 -1.01511,-1.69763 0.0701,-0.30705 0.23306,-0.56681 0.45385,-0.75873 l -0.003,-0.0173 6.33319,-5.668 z m -15.59392,6.13224 2.6088,0 1.62141,2.02676 -0.58205,2.52912 -2.34203,1.12598 -2.34896,-1.12944 -0.58204,-2.52912 z m 8.36341,6.93602 c 0.11086,-0.006 0.22124,0.005 0.32913,0.0243 l 0.0138,-0.0173 8.4431,1.42739 c -1.23565,3.47154 -3.60011,6.479 -6.75933,8.49161 l -3.27746,-7.9165 0.0104,-0.0138 c -0.30106,-0.69956 2.3e-4,-1.51991 0.69291,-1.85353 0.17735,-0.0854 0.36263,-0.13271 0.5474,-0.14205 z m -14.18039,0.0347 c 0.64432,0.009 1.22225,0.45623 1.37196,1.11212 0.0701,0.30705 0.036,0.61128 -0.0797,0.87999 l 0.0242,0.0312 -3.24281,7.83681 c -3.03186,-1.94554 -5.44674,-4.85857 -6.73854,-8.4327 l 8.37033,-1.42046 0.0138,0.0173 c 0.0936,-0.0172 0.18859,-0.0255 0.28063,-0.0243 z m 7.07114,3.43337 c 0.22444,-0.008 0.45218,0.0378 0.66866,0.14204 0.28376,0.13665 0.50297,0.3518 0.64094,0.60976 l 0.0312,0 4.12628,7.45571 c -0.53552,0.17952 -1.08605,0.33294 -1.64913,0.46078 -3.15574,0.71652 -6.30144,0.49941 -9.14987,-0.47118 l 4.11589,-7.44184 0.007,0 c 0.24697,-0.46169 0.71535,-0.73713 1.20912,-0.75527 z"
           id="path3059"
           inkscape:connector-curvature="0" />
      </g>
      <g
         transform="translate(0,-1.8996201)"
         id="g4298">
        <g
           style="stroke-width:1.20192027;stroke-miterlimit:4;stroke-dasharray:none;filter:url(#filter4280)"
           id="layer3"
           transform="matrix(0.20800048,0,0,0.20800048,421.01828,621.51534)" />
        <g
           style="stroke-width:0.90958595;stroke-miterlimit:4;stroke-dasharray:none;filter:url(#filter4280-0)"
           id="layer3-2"
           transform="matrix(0.27485033,0,0,0.27485033,421.01828,628.5716)" />
        <text
           xml:space="preserve"
           style="font-style:normal;font-weight:normal;font-size:15px;line-height:125%;font-family:sans-serif;letter-spacing:0px;word-spacing:0px;fill:#000000;fill-opacity:1;stroke:none;stroke-width:0.25;stroke-linecap:butt;stroke-linejoin:miter;stroke-miterlimit:4;stroke-dasharray:none;stroke-opacity:1"
           x="34.892792"
           y="594.4726"
           id="text4225"
           sodipodi:linespacing="125%"><tspan
             sodipodi:role="line"
             id="tspan4227"
             x="34.892792"
             y="594.4726">Apache Zeppelin running with Spark on Kubernetes</tspan></text>
        <text
           xml:space="preserve"
           style="font-style:normal;font-weight:normal;font-size:15px;line-height:125%;font-family:sans-serif;letter-spacing:0px;word-spacing:0px;fill:#000000;fill-opacity:1;stroke:none;stroke-width:0.25;stroke-linecap:butt;stroke-linejoin:miter;stroke-miterlimit:4;stroke-dasharray:none;stroke-opacity:1"
           x="262.80051"
           y="613.09766"
           id="text4225-3"
           sodipodi:linespacing="125%"><tspan
             sodipodi:role="line"
             id="tspan4227-5"
             x="262.80051"
             y="613.09766">InCluster SparkClient</tspan></text>
      </g>
    </g>
    <g
       id="g4292"
       transform="translate(8.5121038,0)">
      <path
         style="fill:none;fill-opacity:1;stroke:#000000;stroke-width:0.63620192;stroke-miterlimit:4;stroke-dasharray:none;stroke-opacity:1;filter:url(#filter4264-3-2-2-9)"
         d="m 319.34933,683.73367 a 5.1801472,5.137755 0 0 0 -1.98518,0.50235 l -27.08929,12.94355 a 5.1801472,5.137755 0 0 0 -2.80281,3.48533 l -6.68311,29.07448 a 5.1801472,5.137755 0 0 0 0.7033,3.93918 5.1801472,5.137755 0 0 0 0.29449,0.40882 l 18.75012,23.31293 a 5.1801472,5.137755 0 0 0 4.05005,1.93321 l 30.0688,-0.007 a 5.1801472,5.137755 0 0 0 4.05005,-1.92975 l 18.7432,-23.31639 a 5.1801472,5.137755 0 0 0 1.00126,-4.34801 l -6.69351,-29.07448 a 5.1801472,5.137755 0 0 0 -2.80281,-3.48533 l -27.09276,-12.93662 a 5.1801472,5.137755 0 0 0 -2.5118,-0.50235 z"
         id="path3055-5-1-0-6"
         inkscape:connector-curvature="0"
         inkscape:export-filename="new.png"
         inkscape:export-xdpi="250.55"
         inkscape:export-ydpi="250.55"
         transform="matrix(0.39295699,0,0,0.39295699,48.355062,390.30332)" />
      <path
         style="fill:none;fill-opacity:1;stroke:#000000;stroke-width:0.63620192;stroke-miterlimit:4;stroke-dasharray:none;stroke-opacity:1;filter:url(#filter4264-3-2-2-9-0)"
         d="m 319.34933,683.73367 a 5.1801472,5.137755 0 0 0 -1.98518,0.50235 l -27.08929,12.94355 a 5.1801472,5.137755 0 0 0 -2.80281,3.48533 l -6.68311,29.07448 a 5.1801472,5.137755 0 0 0 0.7033,3.93918 5.1801472,5.137755 0 0 0 0.29449,0.40882 l 18.75012,23.31293 a 5.1801472,5.137755 0 0 0 4.05005,1.93321 l 30.0688,-0.007 a 5.1801472,5.137755 0 0 0 4.05005,-1.92975 l 18.7432,-23.31639 a 5.1801472,5.137755 0 0 0 1.00126,-4.34801 l -6.69351,-29.07448 a 5.1801472,5.137755 0 0 0 -2.80281,-3.48533 l -27.09276,-12.93662 a 5.1801472,5.137755 0 0 0 -2.5118,-0.50235 z"
         id="path3055-5-1-0-6-2"
         inkscape:connector-curvature="0"
         inkscape:export-filename="new.png"
         inkscape:export-xdpi="250.55"
         inkscape:export-ydpi="250.55"
         transform="matrix(0.39295699,0,0,0.39295699,135.95269,390.30332)" />
      <path
         style="fill:none;fill-opacity:1;stroke:#000000;stroke-width:0.63620192;stroke-miterlimit:4;stroke-dasharray:none;stroke-opacity:1;filter:url(#filter4264-3-2-2-9-6)"
         d="m 319.34933,683.73367 a 5.1801472,5.137755 0 0 0 -1.98518,0.50235 l -27.08929,12.94355 a 5.1801472,5.137755 0 0 0 -2.80281,3.48533 l -6.68311,29.07448 a 5.1801472,5.137755 0 0 0 0.7033,3.93918 5.1801472,5.137755 0 0 0 0.29449,0.40882 l 18.75012,23.31293 a 5.1801472,5.137755 0 0 0 4.05005,1.93321 l 30.0688,-0.007 a 5.1801472,5.137755 0 0 0 4.05005,-1.92975 l 18.7432,-23.31639 a 5.1801472,5.137755 0 0 0 1.00126,-4.34801 l -6.69351,-29.07448 a 5.1801472,5.137755 0 0 0 -2.80281,-3.48533 l -27.09276,-12.93662 a 5.1801472,5.137755 0 0 0 -2.5118,-0.50235 z"
         id="path3055-5-1-0-6-8"
         inkscape:connector-curvature="0"
         inkscape:export-filename="new.png"
         inkscape:export-xdpi="250.55"
         inkscape:export-ydpi="250.55"
         transform="matrix(0.39295699,0,0,0.39295699,92.153883,390.30332)" />
      <path
         style="fill:none;fill-opacity:1;stroke:#000000;stroke-width:0.63620192;stroke-miterlimit:4;stroke-dasharray:none;stroke-opacity:1;filter:url(#filter4264-3-2-2-9-0-6)"
         d="m 319.34933,683.73367 a 5.1801472,5.137755 0 0 0 -1.98518,0.50235 l -27.08929,12.94355 a 5.1801472,5.137755 0 0 0 -2.80281,3.48533 l -6.68311,29.07448 a 5.1801472,5.137755 0 0 0 0.7033,3.93918 5.1801472,5.137755 0 0 0 0.29449,0.40882 l 18.75012,23.31293 a 5.1801472,5.137755 0 0 0 4.05005,1.93321 l 30.0688,-0.007 a 5.1801472,5.137755 0 0 0 4.05005,-1.92975 l 18.7432,-23.31639 a 5.1801472,5.137755 0 0 0 1.00126,-4.34801 l -6.69351,-29.07448 a 5.1801472,5.137755 0 0 0 -2.80281,-3.48533 l -27.09276,-12.93662 a 5.1801472,5.137755 0 0 0 -2.5118,-0.50235 z"
         id="path3055-5-1-0-6-2-9"
         inkscape:connector-curvature="0"
         inkscape:export-filename="new.png"
         inkscape:export-xdpi="250.55"
         inkscape:export-ydpi="250.55"
         transform="matrix(0.39295699,0,0,0.39295699,179.75151,390.30332)" />
    </g>
    <g
       id="g4236"
       transform="translate(113.97564,17.482989)">
      <text
         sodipodi:linespacing="125%"
         id="text4214"
         y="682.38861"
         x="110.01178"
         style="font-style:normal;font-weight:normal;font-size:15px;line-height:125%;font-family:sans-serif;letter-spacing:0px;word-spacing:0px;fill:#000000;fill-opacity:1;stroke:none;stroke-width:1px;stroke-linecap:butt;stroke-linejoin:miter;stroke-opacity:1"
         xml:space="preserve"><tspan
           style="font-size:7.5px"
           y="682.38861"
           x="110.01178"
           id="tspan4216"
           sodipodi:role="line">Apache Spark</tspan></text>
      <text
         sodipodi:linespacing="125%"
         id="text4214-3"
         y="692.19055"
         x="109.3233"
         style="font-style:normal;font-weight:normal;font-size:15px;line-height:125%;font-family:sans-serif;letter-spacing:0px;word-spacing:0px;fill:#000000;fill-opacity:1;stroke:none;stroke-width:1px;stroke-linecap:butt;stroke-linejoin:miter;stroke-opacity:1"
         xml:space="preserve"><tspan
           style="font-size:7.5px"
           y="692.19055"
           x="109.3233"
           id="tspan4216-6"
           sodipodi:role="line">Executor Pods</tspan></text>
    </g>
    <g
       id="g4291"
       transform="translate(-85.061466,117.00154)">
      <text
         sodipodi:linespacing="125%"
         id="text4214-5"
         y="716.93073"
         x="302.76642"
         style="font-style:normal;font-weight:normal;font-size:15px;line-height:125%;font-family:sans-serif;letter-spacing:0px;word-spacing:0px;fill:#000000;fill-opacity:1;stroke:none;stroke-width:1px;stroke-linecap:butt;stroke-linejoin:miter;stroke-opacity:1"
         xml:space="preserve"><tspan
           style="font-size:7.5px"
           y="716.93073"
           x="302.76642"
           id="tspan4216-3"
           sodipodi:role="line">Apache Zeppelin</tspan></text>
      <text
         sodipodi:linespacing="125%"
         id="text4214-3-5"
         y="726.21906"
         x="303.37982"
         style="font-style:normal;font-weight:normal;font-size:15px;line-height:125%;font-family:sans-serif;letter-spacing:0px;word-spacing:0px;fill:#000000;fill-opacity:1;stroke:none;stroke-width:1px;stroke-linecap:butt;stroke-linejoin:miter;stroke-opacity:1"
         xml:space="preserve"><tspan
           style="font-size:7.5px"
           y="726.21906"
           x="303.37982"
           id="tspan4216-6-6"
           sodipodi:role="line">+ Apache Spark</tspan></text>
      <text
         sodipodi:linespacing="125%"
         id="text4214-3-5-2"
         y="736.23431"
         x="327.23846"
         style="font-style:normal;font-weight:normal;font-size:15px;line-height:125%;font-family:sans-serif;letter-spacing:0px;word-spacing:0px;fill:#000000;fill-opacity:1;stroke:none;stroke-width:1px;stroke-linecap:butt;stroke-linejoin:miter;stroke-opacity:1"
         xml:space="preserve"><tspan
           style="font-size:7.5px"
           y="736.23431"
           x="327.23846"
           id="tspan4216-6-6-9"
           sodipodi:role="line">Pod</tspan></text>
    </g>
  </g>
</svg>
