<?xml version="1.0" encoding="UTF-8" standalone="no"?>
<svg
   xmlns:dc="http://purl.org/dc/elements/1.1/"
   xmlns:cc="http://creativecommons.org/ns#"
   xmlns:rdf="http://www.w3.org/1999/02/22-rdf-syntax-ns#"
   xmlns:svg="http://www.w3.org/2000/svg"
   xmlns="http://www.w3.org/2000/svg"
   xmlns:sodipodi="http://sodipodi.sourceforge.net/DTD/sodipodi-0.dtd"
   xmlns:inkscape="http://www.inkscape.org/namespaces/inkscape"
   width="300"
   height="353.76999"
   version="1.1"
   id="svg106"
   sodipodi:docname="success.svg"
   inkscape:version="0.92.2 5c3e80d, 2017-08-06">
  <defs
     id="defs110" />
  <sodipodi:namedview
     pagecolor="#ffffff"
     bordercolor="#666666"
     borderopacity="1"
     objecttolerance="10"
     gridtolerance="10"
     guidetolerance="10"
     inkscape:pageopacity="0"
     inkscape:pageshadow="2"
     inkscape:window-width="1078"
     inkscape:window-height="607"
     id="namedview108"
     showgrid="false"
     inkscape:zoom="0.49166667"
     inkscape:cx="320"
     inkscape:cy="240"
     inkscape:window-x="459"
     inkscape:window-y="124"
     inkscape:window-maximized="0"
     inkscape:current-layer="svg106" />
  <title
     id="title2">Cartoon Robot</title>
  <metadata
     id="metadata4">image/svg+xmlCartoon Robot18th May 2012Sirrob01Public DomainSimple Cartoon robotrobotcartoonandroidsci-fitechnologyclip artartificialcomiciconsciencetoy<rdf:RDF>
  <cc:Work
     rdf:about="">
    <dc:format>image/svg+xml</dc:format>
    <dc:type
       rdf:resource="http://purl.org/dc/dcmitype/StillImage" />
    <dc:title>Cartoon Robot</dc:title>
  </cc:Work>
</rdf:RDF>
</metadata>
  <g
     id="g104"
     transform="matrix(0.88587625,0,0,0.88587625,-0.36153,-0.35734925)">
    <title
       id="title5">Layer 1</title>
    <g
       id="g4392">
      <rect
         id="rect4394"
         width="14.475343"
         height="23.75732"
         x="548.62823"
         y="66.124077"
         ry="2.2311311"
         transform="matrix(-1.2076906,0.71489373,0.71489373,1.2076906,884.581,-240.717)"
         stroke-miterlimit="4"
         style="fill:#ff0000;stroke:#484848;stroke-width:2.31199098;stroke-linecap:round;stroke-linejoin:round;stroke-miterlimit:4;stroke-dashoffset:0" />
      <path
         d="m 256.52249,233.27689 0.67645,1.71637 13.97806,32.38812 -2.93457,1.94513 -18.84933,-33.27507 5.54353,-2.14865 z"
         id="path4396"
         inkscape:connector-curvature="0"
         style="opacity:0.62999998;fill:#ff0000" />
      <path
         id="path4398"
         d="m 291.57571,270.2514 -0.94168,-1.58587 -17.07403,-28.7182 -3.30084,-1.04135 14.75695,35.28201 5.09299,-3.06647 1.46661,-0.87011 z"
         inkscape:connector-curvature="0"
         style="opacity:0.62999998;fill:#ff0000" />
      <rect
         transform="matrix(-1.2076906,0.71489373,0.71489373,1.2076906,884.581,-240.717)"
         ry="2.2311311"
         y="66.124077"
         x="548.62823"
         height="23.75732"
         width="14.475343"
         id="rect4400"
         stroke-miterlimit="4"
         style="fill:#ff0000;stroke:#484848;stroke-width:2.31199098;stroke-linecap:round;stroke-linejoin:round;stroke-miterlimit:4;stroke-dashoffset:0" />
      <rect
         id="rect4402"
         width="18.770241"
         height="25.502827"
         x="546.55798"
         y="48.009869"
         ry="2.126646"
         transform="matrix(-1.2076906,0.71489373,0.71489373,1.2076906,884.581,-240.717)"
         stroke-miterlimit="4"
         style="fill:#ff0000;stroke:#484848;stroke-width:2;stroke-linecap:round;stroke-linejoin:round;stroke-miterlimit:4;stroke-dashoffset:0" />
      <path
         d="m 275.20203,238.37131 -0.94312,-1.58588 -17.0726,-28.71678 -3.30084,-1.04276 14.75696,35.282 5.09298,-3.06506 z"
         id="path4404"
         inkscape:connector-curvature="0"
         style="opacity:0.62999998;fill:#ff0000" />
      <path
         id="path4406"
         d="m 243.37382,215.66257 0.67644,1.71495 13.97809,32.38955 -2.93454,1.94512 -18.84934,-33.27649 5.54212,-2.14723 z"
         inkscape:connector-curvature="0"
         style="opacity:0.62999998;fill:#ff0000" />
      <rect
         transform="matrix(-1.2076906,0.71489373,0.71489373,1.2076906,884.581,-240.717)"
         ry="2.126646"
         y="48.009869"
         x="546.55798"
         height="25.502827"
         width="18.770241"
         id="rect4408"
         stroke-miterlimit="4"
         style="fill:#ff0000;stroke:#484848;stroke-width:2;stroke-linecap:round;stroke-linejoin:round;stroke-miterlimit:4;stroke-dashoffset:0" />
      <path
         id="path4410"
         d="m 211.93303,202.24724 c 0,12.94798 10.49618,23.44417 23.44412,23.44417 12.94797,0 23.44414,-10.49619 23.44414,-23.44417 0,-12.94651 -10.49617,-23.44269 -23.44414,-23.44269 -12.94794,0 -23.44412,10.49618 -23.44412,23.44269 z"
         stroke-miterlimit="4"
         inkscape:connector-curvature="0"
         style="fill:#ff0000;stroke:#484848;stroke-width:2;stroke-linecap:round;stroke-linejoin:round;stroke-miterlimit:4;stroke-dashoffset:0" />
      <path
         d="m 314.82196,277.66003 c 1.2785,-1.04837 3.14929,-0.86172 4.1962,0.41825 l 12.55642,15.33935 c 7.89423,9.56711 8.53562,19.08795 2.08127,29.01569 L 315.6261,300.40805 c -0.52344,-0.63852 -1.25327,-0.9964 -2.01248,-1.07217 -0.75928,-0.0758 -1.54377,0.13049 -2.18372,0.65399 l -7.29639,5.97293 c -0.63995,0.5235 -0.99783,1.25326 -1.0736,2.01248 -0.0758,0.75928 0.13049,1.5452 0.65536,2.18375 l 17.91748,21.88916 c -10.11023,3.71905 -20.23593,0.94449 -27.319,-8.12723 l -12.5578,-15.33939 c -1.04694,-1.2799 -0.86029,-3.14926 0.41824,-4.19763 l 1.4329,-15.45444 16.32318,-13.36337 z"
         id="path4412"
         stroke-miterlimit="4"
         inkscape:connector-curvature="0"
         style="fill:#ff0000;stroke:#484848;stroke-width:2.02354288;stroke-linecap:round;stroke-linejoin:round;stroke-miterlimit:4;stroke-dashoffset:0" />
      <path
         d="m 321.99203,331.84186 c -19.05145,0.11368 -25.8973,-13.70719 -33.59509,-26.40253 l 1.05255,-19.55948 -6.13995,0.78876 -0.35086,17.54275 -0.96411,2.63141 15.52459,20.17417 9.03525,5.35122 9.82395,1.40342 z"
         id="path4414"
         inkscape:connector-curvature="0"
         style="fill:#ff0000" />
      <path
         id="path4416"
         d="m 314.82196,277.66003 c 1.2785,-1.04837 3.14929,-0.86172 4.1962,0.41825 l 12.55642,15.33935 c 7.89423,9.56711 8.53562,19.08795 2.08127,29.01569 L 315.6261,300.40805 c -0.52344,-0.63852 -1.25327,-0.9964 -2.01248,-1.07217 -0.75928,-0.0758 -1.54377,0.13049 -2.18372,0.65399 l -7.29639,5.97293 c -0.63995,0.5235 -0.99783,1.25326 -1.0736,2.01248 -0.0758,0.75928 0.13049,1.5452 0.65536,2.18375 l 17.91748,21.88916 c -10.11023,3.71905 -20.23593,0.94449 -27.319,-8.12723 l -12.5578,-15.33939 c -1.04694,-1.2799 -0.86029,-3.14926 0.41824,-4.19763 l 1.4329,-15.45444 16.32318,-13.36337 z"
         stroke-miterlimit="4"
         inkscape:connector-curvature="0"
         style="fill:#ff0000;stroke:#484848;stroke-width:2.02354288;stroke-linecap:round;stroke-linejoin:round;stroke-miterlimit:4;stroke-dashoffset:0" />
      <path
         d="m 333.21939,316.93054 c 8.02899,-11.40698 -7.46478,-26.2959 -16.31476,-36.40191 l -17.28033,-2.543 c -0.16416,2.80264 0.1965,2.85455 -1.59711,4.95968 1.42871,-0.0168 13.40412,1.64481 14.33316,2.01813 10.67581,4.28464 24.14581,20.00998 20.85904,31.9671 z"
         id="path4418"
         inkscape:connector-curvature="0"
         style="opacity:0.62999998;fill:#ff0000" />
      <path
         id="path4420"
         d="m 268.05997,272.27652 c -1.95917,8.54681 3.49173,17.08804 12.17331,19.07666 8.68014,1.98865 17.30554,-3.32748 19.26333,-11.87573 1.95917,-8.54819 -3.4917,-17.08945 -12.17328,-19.0781 -8.68155,-1.98861 -17.30554,3.32895 -19.26336,11.87717 z"
         stroke-miterlimit="4"
         inkscape:connector-curvature="0"
         style="fill:#ff0000;stroke:#484848;stroke-width:2.21663308;stroke-linecap:round;stroke-linejoin:round;stroke-miterlimit:4;stroke-dashoffset:0" />
      <path
         d="m 297.13324,277.82284 c -3.87341,-7.9125 -10.9649,-12.17889 -20.43097,-13.75634 11.00281,-2.81946 19.60715,-1.40201 20.43097,13.75634 z"
         id="path4422"
         inkscape:connector-curvature="0"
         style="opacity:0.62980801;fill:#ff0000" />
      <path
         id="path4424"
         d="m 254.42297,209.28821 c -1.13114,-17.28308 -12.51992,-24.209 -26.38008,-26.17656 14.0286,-5.26004 33.27227,7.81702 26.38008,26.17656 z"
         inkscape:connector-curvature="0"
         style="opacity:0.62980801;fill:#ff0000" />
    </g>
    <g
       id="g4374">
      <rect
         transform="matrix(1.2076906,0.71489373,-0.71489373,1.2076906,-142.699,-240.717)"
         ry="2.2311311"
         y="212.18813"
         x="301.87793"
         height="23.75732"
         width="14.475343"
         id="rect4220"
         stroke-miterlimit="4"
         style="fill:#ff0000;stroke:#484848;stroke-width:2.31199098;stroke-linecap:round;stroke-linejoin:round;stroke-miterlimit:4;stroke-dashoffset:0" />
      <path
         id="path4298"
         d="m 82.941475,233.27689 -0.67646,1.71637 -13.978058,32.38812 2.93454,1.94513 18.849335,-33.27507 -5.54351,-2.14865 z"
         inkscape:connector-curvature="0"
         style="opacity:0.62999998;fill:#ff0000" />
      <path
         d="m 47.888245,270.2514 0.941704,-1.58587 17.074005,-28.7182 3.300835,-1.04135 -14.756962,35.28201 -5.09301,-3.06647 -1.466572,-0.87011 z"
         id="path4296"
         inkscape:connector-curvature="0"
         style="opacity:0.62999998;fill:#ff0000" />
      <rect
         id="rect4300"
         width="14.475343"
         height="23.75732"
         x="301.87793"
         y="212.18813"
         ry="2.2311311"
         transform="matrix(1.2076906,0.71489373,-0.71489373,1.2076906,-142.699,-240.717)"
         stroke-miterlimit="4"
         style="fill:#ff0000;stroke:#484848;stroke-width:2.31199098;stroke-linecap:round;stroke-linejoin:round;stroke-miterlimit:4;stroke-dashoffset:0" />
      <rect
         transform="matrix(1.2076906,0.71489373,-0.71489373,1.2076906,-142.699,-240.717)"
         ry="2.126646"
         y="194.07391"
         x="299.80768"
         height="25.502827"
         width="18.770241"
         id="rect4222"
         stroke-miterlimit="4"
         style="fill:#ff0000;stroke:#484848;stroke-width:2;stroke-linecap:round;stroke-linejoin:round;stroke-miterlimit:4;stroke-dashoffset:0" />
      <path
         id="path4290"
         d="m 64.261932,238.37131 0.943115,-1.58588 17.072601,-28.71678 3.30085,-1.04276 -14.756966,35.282 -5.093002,-3.06506 -1.466599,-0.87152 z"
         inkscape:connector-curvature="0"
         style="opacity:0.62999998;fill:#ff0000" />
      <path
         d="m 96.090096,215.66257 -0.676437,1.71495 -13.978073,32.38955 2.934555,1.94512 18.849339,-33.27649 -5.542095,-2.14723 z"
         id="path4294"
         inkscape:connector-curvature="0"
         style="opacity:0.62999998;fill:#ff0000" />
      <rect
         id="rect4292"
         width="18.770241"
         height="25.502827"
         x="299.80768"
         y="194.07391"
         ry="2.126646"
         transform="matrix(1.2076906,0.71489373,-0.71489373,1.2076906,-142.699,-240.717)"
         stroke-miterlimit="4"
         style="fill:#ff0000;stroke:#484848;stroke-width:2;stroke-linecap:round;stroke-linejoin:round;stroke-miterlimit:4;stroke-dashoffset:0" />
      <path
         d="m 127.53091,202.24724 c 0,12.94798 -10.49616,23.44417 -23.44413,23.44417 -12.947948,0 -23.444111,-10.49619 -23.444111,-23.44417 0,-12.94651 10.496162,-23.44269 23.444111,-23.44269 12.94797,0 23.44413,10.49618 23.44413,23.44269 z"
         id="path4217"
         stroke-miterlimit="4"
         inkscape:connector-curvature="0"
         style="fill:#ff0000;stroke:#484848;stroke-width:2;stroke-linecap:round;stroke-linejoin:round;stroke-miterlimit:4;stroke-dashoffset:0" />
      <path
         id="path4230"
         d="m 24.641993,277.66003 c -1.278509,-1.04837 -3.149269,-0.86172 -4.196222,0.41825 L 7.889374,293.41763 c -7.894237,9.56711 -8.535601,19.08795 -2.081274,29.01569 l 18.029737,-22.02527 c 0.523478,-0.63852 1.253252,-0.9964 2.012503,-1.07217 0.759251,-0.0758 1.543758,0.13049 2.18372,0.65399 l 7.296379,5.97293 c 0.639961,0.5235 0.997841,1.25326 1.073624,2.01248 0.07578,0.75928 -0.13052,1.5452 -0.655399,2.18375 l -17.917461,21.88916 c 10.110229,3.71905 20.235912,0.94449 27.31897,-8.12723 l 12.557796,-15.33939 c 1.046955,-1.2799 0.860306,-3.14926 -0.418201,-4.19763 l -1.432907,-15.45444 -16.323174,-13.36337 -14.891691,2.0939 z"
         stroke-miterlimit="4"
         inkscape:connector-curvature="0"
         style="fill:#ff0000;stroke:#484848;stroke-width:2.02354288;stroke-linecap:round;stroke-linejoin:round;stroke-miterlimit:4;stroke-dashoffset:0" />
      <path
         id="path4304"
         d="m 17.47332,331.84186 c 19.05003,0.11368 25.895912,-13.70719 33.59367,-26.40253 l -1.052563,-19.55948 6.139961,0.78876 0.350857,17.54275 0.965557,2.63141 -15.526043,20.17417 -9.033817,5.35122 -9.823942,1.40342 z"
         inkscape:connector-curvature="0"
         style="fill:#ff0000" />
      <path
         d="m 24.641993,277.66003 c -1.278509,-1.04837 -3.149269,-0.86172 -4.196222,0.41825 L 7.889374,293.41763 c -7.894237,9.56711 -8.535601,19.08795 -2.081274,29.01569 l 18.029737,-22.02527 c 0.523478,-0.63852 1.253252,-0.9964 2.012503,-1.07217 0.759251,-0.0758 1.543758,0.13049 2.18372,0.65399 l 7.296379,5.97293 c 0.639961,0.5235 0.997841,1.25326 1.073624,2.01248 0.07578,0.75928 -0.13052,1.5452 -0.655399,2.18375 l -17.917461,21.88916 c 10.110229,3.71905 20.235912,0.94449 27.31897,-8.12723 l 12.557796,-15.33939 c 1.046955,-1.2799 0.860306,-3.14926 -0.418201,-4.19763 l -1.432907,-15.45444 -16.323174,-13.36337 -14.891691,2.0939 z"
         id="path4306"
         stroke-miterlimit="4"
         inkscape:connector-curvature="0"
         style="fill:#ff0000;stroke:#484848;stroke-width:2.02354288;stroke-linecap:round;stroke-linejoin:round;stroke-miterlimit:4;stroke-dashoffset:0" />
      <path
         id="path4302"
         d="m 6.245961,316.93054 c -8.030369,-11.40698 7.463389,-26.2959 16.314758,-36.40191 l 17.278912,-2.543 c 0.164207,2.80264 -0.196476,2.85455 1.597092,4.95968 -1.428688,-0.0168 -13.404066,1.64481 -14.333134,2.01813 -10.675808,4.28464 -24.145833,20.00998 -20.857628,31.9671 z"
         inkscape:connector-curvature="0"
         style="opacity:0.62999998;fill:#ff0000" />
      <path
         d="m 71.403946,272.27652 c 1.959167,8.54681 -3.491699,17.08804 -12.17326,19.07666 -8.680149,1.98865 -17.305584,-3.32748 -19.26334,-11.87573 -1.95919,-8.54819 3.491699,-17.08945 12.17326,-19.0781 8.681564,-1.98861 17.305561,3.32895 19.26334,11.87717 z"
         id="path4224"
         stroke-miterlimit="4"
         inkscape:connector-curvature="0"
         style="fill:#ff0000;stroke:#484848;stroke-width:2.21663308;stroke-linecap:round;stroke-linejoin:round;stroke-miterlimit:4;stroke-dashoffset:0" />
      <path
         id="path4286"
         d="M 42.330692,277.82284 C 46.204147,269.91034 53.29562,265.64395 62.76168,264.0665 51.758872,261.24704 43.154506,262.66449 42.330692,277.82284 Z"
         inkscape:connector-curvature="0"
         style="opacity:0.62980801;fill:#ff0000" />
      <path
         d="m 85.04097,209.28821 c 1.131157,-17.28308 12.51992,-24.209 26.3801,-26.17656 -14.028583,-5.26004 -33.272289,7.81702 -26.3801,26.17656 z"
         id="path4288"
         inkscape:connector-curvature="0"
         style="opacity:0.62980801;fill:#ff0000" />
    </g>
    <g
       id="g4344">
      <rect
         transform="matrix(-1.40342,0,0,1.40342,890.507,-241.213)"
         ry="6.3639612"
         y="424.33154"
         x="474.33453"
         height="12.727922"
         width="36.769554"
         id="rect4346"
         stroke-miterlimit="4"
         style="fill:#a4a4a4;stroke:#484848;stroke-width:2;stroke-linecap:round;stroke-linejoin:round;stroke-miterlimit:4;stroke-dashoffset:0" />
      <rect
         transform="matrix(-1.40342,0,0,1.40342,890.507,-241.213)"
         id="rect4348"
         width="36.769554"
         height="12.727922"
         x="474.33453"
         y="412.33154"
         ry="6.3639612"
         stroke-miterlimit="4"
         style="fill:#a4a4a4;stroke:#484848;stroke-width:2;stroke-linecap:round;stroke-linejoin:round;stroke-miterlimit:4;stroke-dashoffset:0" />
      <rect
         transform="matrix(-1.40342,0,0,1.40342,890.507,-241.213)"
         ry="6.3639612"
         y="400.33154"
         x="474.33453"
         height="12.727922"
         width="36.769554"
         id="rect4350"
         stroke-miterlimit="4"
         style="fill:#a4a4a4;stroke:#484848;stroke-width:2;stroke-linecap:round;stroke-linejoin:round;stroke-miterlimit:4;stroke-dashoffset:0" />
      <rect
         transform="matrix(-1.40342,0,0,1.40342,890.507,-241.213)"
         id="rect4352"
         width="36.769554"
         height="12.727922"
         x="473.98099"
         y="387.95718"
         ry="6.3639612"
         stroke-miterlimit="4"
         style="fill:#a4a4a4;stroke:#484848;stroke-width:2;stroke-linecap:round;stroke-linejoin:round;stroke-miterlimit:4;stroke-dashoffset:0" />
      <path
         d="m 189.33917,302.5874 c -3.24237,5.6283 -5.9396,11.31574 0,17.86261 -3.73079,5.17865 -7.43837,10.36102 0.24806,17.36646 -7.18019,6.70984 -4.36761,11.75424 -0.49612,16.62213 -6.3739,10.74567 -0.71877,12.29266 0,17.61453 l -14.88551,0.24811 1.24044,-3.72141 -2.97712,-4.46563 1.48857,-6.45038 4.71371,-3.72138 -4.96177,-3.7214 -0.99244,-5.45801 5.20993,-6.94656 -3.47326,-3.22519 -1.24042,-6.20234 5.95413,-8.18701 -4.4656,-3.47329 -1.73664,-5.20993 3.22516,-6.20228 3.22519,-2.72903 8.68327,0.74429 z"
         id="path4354"
         inkscape:connector-curvature="0"
         style="fill:#808080" />
      <path
         id="path4356"
         d="m 209.38133,302.76285 c 3.24237,5.62826 5.9397,11.3157 0,17.86258 3.73084,5.17868 7.43846,10.36102 -0.24806,17.36648 7.18028,6.70984 4.36766,11.75424 0.49617,16.62213 6.3739,10.74567 0.71872,12.29264 0,17.61454 l 14.88551,0.2481 -1.24041,-3.7214 2.97705,-4.46567 -1.48853,-6.45038 -4.71376,-3.72137 4.96187,-3.72141 0.99235,-5.45801 -5.20993,-6.94653 3.4733,-3.22522 1.24045,-6.2023 -5.95421,-8.18701 4.4657,-3.47333 1.73659,-5.20993 -3.22521,-6.20227 -3.22514,-2.729 -8.68323,0.74426 z"
         inkscape:connector-curvature="0"
         style="opacity:0.62999998;fill:#ffffff" />
      <rect
         transform="matrix(-1.40342,0,0,1.40342,890.507,-241.213)"
         id="rect4358"
         width="36.769554"
         height="12.102922"
         x="474.33453"
         y="424.95654"
         ry="6.0514612"
         stroke-miterlimit="4"
         style="fill:none;stroke:#484848;stroke-width:2;stroke-linecap:round;stroke-linejoin:round;stroke-miterlimit:4;stroke-dashoffset:0" />
      <rect
         transform="matrix(-1.40342,0,0,1.40342,890.507,-241.213)"
         ry="5.9889612"
         y="413.08154"
         x="474.33453"
         height="11.977922"
         width="36.769554"
         id="rect4360"
         stroke-miterlimit="4"
         style="fill:none;stroke:#484848;stroke-width:2;stroke-linecap:round;stroke-linejoin:round;stroke-miterlimit:4;stroke-dashoffset:0" />
      <rect
         transform="matrix(-1.40342,0,0,1.40342,890.507,-241.213)"
         id="rect4362"
         width="36.769554"
         height="12.227922"
         x="474.33453"
         y="400.83154"
         ry="6.1139612"
         stroke-miterlimit="4"
         style="fill:none;stroke:#484848;stroke-width:2;stroke-linecap:round;stroke-linejoin:round;stroke-miterlimit:4;stroke-dashoffset:0" />
      <rect
         transform="matrix(-1.40342,0,0,1.40342,890.507,-241.213)"
         ry="6.3639612"
         y="387.95718"
         x="473.98099"
         height="12.727922"
         width="36.769554"
         id="rect4364"
         stroke-miterlimit="4"
         style="fill:none;stroke:#484848;stroke-width:2;stroke-linecap:round;stroke-linejoin:round;stroke-miterlimit:4;stroke-dashoffset:0" />
      <path
         d="m 172.71699,397.60663 c 5.40459,0.44183 86.57021,1.42114 88.32076,-0.49619 0,-19.04538 -20.62563,-34.48477 -46.06851,-34.48477 -14.46712,0 -32.28337,2.51086 -40.72917,6.8457 -1.41353,2.59479 -1.52307,19.91925 -1.52308,28.13526 z"
         id="path4366"
         stroke-miterlimit="4"
         inkscape:connector-curvature="0"
         style="fill:#a4a4a4;stroke:#484848;stroke-width:2;stroke-linecap:round;stroke-linejoin:round;stroke-miterlimit:4;stroke-dashoffset:0" />
      <path
         d="m 260.78964,393.63715 c -44.69333,-1.57813 -87.69798,5.23043 -78.64509,-26.79395 l -8.68328,2.97711 -0.74428,28.2825 87.82454,-0.2481 z"
         id="path4368"
         inkscape:connector-curvature="0"
         style="fill:#808080" />
      <path
         id="path4370"
         d="m 172.71699,397.60663 c 5.40459,0.44183 86.57021,1.42114 88.32076,-0.49619 0,-19.04538 -20.62563,-34.48477 -46.06851,-34.48477 -14.46712,0 -32.28337,2.51086 -40.72917,6.8457 -1.41353,2.59479 -1.52307,19.91925 -1.52308,28.13526 z"
         stroke-miterlimit="4"
         inkscape:connector-curvature="0"
         style="fill:none;stroke:#484848;stroke-width:2;stroke-linecap:round;stroke-linejoin:round;stroke-miterlimit:4;stroke-dashoffset:0" />
      <path
         id="path4372"
         d="m 252.45735,383.78003 c -9.93829,-8.4386 -19.97865,-14.99945 -44.18699,-17.03934 18.05009,-3.04147 36.41902,1.95621 44.18699,17.03934 z"
         inkscape:connector-curvature="0"
         style="opacity:0.62980801;fill:#ffffff" />
    </g>
    <rect
       y="97.592255"
       x="254.59421"
       height="39.694729"
       width="18.075279"
       id="rect4181"
       stroke-miterlimit="4"
       style="fill:#a4a4a4;stroke:#484848;stroke-width:2.8068409;stroke-linecap:round;stroke-linejoin:round;stroke-miterlimit:4;stroke-dashoffset:0" />
    <rect
       y="99.005524"
       x="249.41019"
       height="9.1222343"
       width="21.928448"
       id="rect4274"
       style="fill:#0000ff" />
    <rect
       id="rect4276"
       width="21.928448"
       height="9.1222343"
       x="249.34439"
       y="126.76695"
       style="opacity:0.35;fill:#ffff00" />
    <rect
       id="rect3654"
       width="51.199978"
       height="19.288023"
       x="147.26468"
       y="159.80789"
       stroke-miterlimit="4"
       style="fill:#a4a4a4;stroke:#484848;stroke-width:2.8068409;stroke-linecap:round;stroke-linejoin:round;stroke-miterlimit:4;stroke-dashoffset:0" />
    <rect
       y="179.17627"
       x="143.12576"
       height="19.145332"
       width="59.828667"
       id="rect4203"
       stroke-miterlimit="4"
       style="fill:#a4a4a4;stroke:#484848;stroke-width:2.8068409;stroke-linecap:round;stroke-linejoin:round;stroke-miterlimit:4;stroke-dashoffset:0" />
    <rect
       id="rect3652"
       width="129.85512"
       height="115.09629"
       x="106.30997"
       y="188.22244"
       stroke-miterlimit="4"
       style="fill:#a4a4a4;stroke:#484848;stroke-width:2.8068409;stroke-linecap:round;stroke-linejoin:round;stroke-miterlimit:4;stroke-dashoffset:0" />
    <rect
       id="rect4179"
       width="18.075279"
       height="39.694729"
       x="69.342682"
       y="97.592255"
       stroke-miterlimit="4"
       style="fill:#a4a4a4;stroke:#484848;stroke-width:2.8068409;stroke-linecap:round;stroke-linejoin:round;stroke-miterlimit:4;stroke-dashoffset:0" />
    <rect
       id="rect4270"
       width="21.928448"
       height="9.1222343"
       x="70.45211"
       y="98.873955"
       style="fill:#0000ff" />
    <rect
       y="126.94238"
       x="70.802971"
       height="9.1222343"
       width="21.928448"
       id="rect4272"
       style="opacity:0.35;fill:#000000" />
    <rect
       id="rect4166"
       width="169.30867"
       height="87.083885"
       x="86.051697"
       y="72.834396"
       stroke-miterlimit="4"
       style="fill:#a4a4a4;stroke:#484848;stroke-width:2.8068409;stroke-linecap:round;stroke-linejoin:round;stroke-miterlimit:4;stroke-dashoffset:0" />
    <path
       d="m 231.31137,74.200699 h 22.68271 V 166.7036 h -22.68271 c 6.55322,-30.83431 10.45346,-61.66858 0,-92.502901 z"
       id="rect4187"
       inkscape:connector-curvature="0"
       style="opacity:0.32846201;fill:#000000" />
    <path
       d="m 78.598717,126.1515 h 23.159733 l 21.68338,21.54189 h 92.63889 l 24.63602,-21.54189 h 23.15972 v 44.40944 H 78.598717 Z"
       id="rect4168"
       stroke-miterlimit="4"
       inkscape:connector-curvature="0"
       style="fill:#a4a4a4;stroke:#484848;stroke-width:2.8068409;stroke-linecap:round;stroke-linejoin:round;stroke-miterlimit:4;stroke-dashoffset:0" />
    <path
       id="path4171"
       d="m 160.39195,102.83803 c 0,10.90259 -8.83828,19.74091 -19.74092,19.74091 -10.90262,0 -19.74097,-8.83833 -19.74097,-19.74091 0,-10.90262 8.83835,-19.740954 19.74097,-19.740954 10.90264,0 19.74092,8.838333 19.74092,19.740954 z"
       inkscape:connector-curvature="0"
       style="fill:#ffffff;stroke:#484848" />
    <path
       d="m 219.57965,101.7748 c 0,10.90258 -8.83829,19.74091 -19.74092,19.74091 -10.90262,0 -19.74097,-8.83833 -19.74097,-19.74091 0,-10.902623 8.83835,-19.740949 19.74097,-19.740949 10.90263,0 19.74092,8.838326 19.74092,19.740949 z"
       id="path4173"
       inkscape:connector-curvature="0"
       style="fill:#ffffff;stroke:#484848" />
    <path
       id="path4175"
       d="m 147.36902,107.84309 c 0,6.86594 -5.5659,12.43189 -12.4319,12.43189 -6.86592,0 -12.43183,-5.56595 -12.43183,-12.43189 0,-6.86593 5.56591,-12.431881 12.43183,-12.431881 6.866,0 12.4319,5.565951 12.4319,12.431881 z"
       inkscape:connector-curvature="0"
       style="fill:#000000" />
    <path
       d="m 206.5567,107.13426 c 0,6.86594 -5.5659,12.43189 -12.4319,12.43189 -6.86592,0 -12.43184,-5.56595 -12.43184,-12.43189 0,-6.86593 5.56592,-12.431883 12.43184,-12.431883 6.866,0 12.4319,5.565953 12.4319,12.431883 z"
       id="path4177"
       inkscape:connector-curvature="0"
       style="fill:#000000" />
    <path
       d="M 88.835602,119.92054 90.253273,77.036041 164.32648,75.972793 96.632751,82.35231 Z"
       id="path4185"
       inkscape:connector-curvature="0"
       style="fill:#e5e5e5" />
    <path
       d="m 238.12605,124.52794 24.37413,-0.0885 V 169.096 h -38.99852 c 3.37973,-9.24765 5.41202,-19.0831 -0.20131,-32.25374 l 14.8257,-12.31424 v -3e-5 -6e-5 z"
       id="rect4189"
       inkscape:connector-curvature="0"
       style="opacity:0.32846201;fill:#000000" />
    <path
       id="path4192"
       d="m 81.417542,134.05183 0.13446,33.99308 61.936158,0.0556 -56.331269,-5.33302 -5.73938,-28.71559 3.1e-5,-3e-5 z"
       inkscape:connector-curvature="0"
       style="fill:#e5e5e5" />
    <path
       d="m 164.68088,29.685909 h 6.45041 l 8.9313,43.168034 h -24.8092 z"
       id="rect4194"
       stroke-miterlimit="4"
       inkscape:connector-curvature="0"
       style="fill:#ff0000;stroke:#484848;stroke-width:2.8068409;stroke-miterlimit:4" />
    <path
       id="path4197"
       d="m 184.03204,18.025591 c 0,9.180159 -6.99769,16.622168 -15.62979,16.622168 -8.63211,0 -15.62981,-7.442009 -15.62981,-16.622168 0,-9.180161 6.9977,-16.622171 15.62981,-16.622171 8.6321,0 15.62979,7.44201 15.62979,16.622171 z"
       stroke-miterlimit="4"
       inkscape:connector-curvature="0"
       style="fill:#604aff;stroke:#00054d;stroke-width:2;stroke-miterlimit:4" />
    <path
       d="m 156.99475,11.48203 c 7.07404,-4.26973 14.72794,-3.84633 22.8096,0.03944 -6.98154,-8.26794 -14.31891,-11.81103 -22.8096,-0.03944 z"
       id="path4199"
       inkscape:connector-curvature="0"
       style="opacity:0.62980801;fill:#ffffff" />
    <path
       d="m 154.65735,22.650681 c 10.233,6.983259 19.55774,7.880859 27.45441,-0.789431 -2.00824,11.642111 -20.57608,18.2087 -27.45441,0.789431 z"
       id="path4201"
       inkscape:connector-curvature="0"
       style="opacity:0.35;fill:#000000" />
    <rect
       id="rect4205"
       width="57.148537"
       height="6.9762492"
       x="142.57327"
       y="272.56769"
       ry="3.393851"
       stroke-miterlimit="4"
       style="fill:#484848;stroke:#484848;stroke-width:1.79512894;stroke-linecap:round;stroke-linejoin:round;stroke-miterlimit:4;stroke-dashoffset:0" />
    <rect
       ry="3.393851"
       y="285.90018"
       x="143.27499"
       height="6.9762492"
       width="57.148537"
       id="rect4207"
       stroke-miterlimit="4"
       style="fill:#484848;stroke:#484848;stroke-width:1.79512894;stroke-linecap:round;stroke-linejoin:round;stroke-miterlimit:4;stroke-dashoffset:0" />
    <path
       id="path4209"
       d="m 133.08734,282.98041 c 0,4.99109 -4.04614,9.03726 -9.03726,9.03726 -4.99113,0 -9.03728,-4.04617 -9.03728,-9.03726 0,-4.99118 4.04615,-9.03733 9.03728,-9.03733 4.99112,0 9.03726,4.04615 9.03726,9.03733 z"
       stroke-miterlimit="4"
       inkscape:connector-curvature="0"
       style="fill:#ff0000;stroke:#484848;stroke-width:2;stroke-linecap:round;stroke-linejoin:round;stroke-miterlimit:4;stroke-dashoffset:0" />
    <path
       d="m 228.51994,282.98041 c 0,4.99109 -4.04614,9.03726 -9.03726,9.03726 -4.99113,0 -9.03728,-4.04617 -9.03728,-9.03726 0,-4.99118 4.04615,-9.03733 9.03728,-9.03733 4.99112,0 9.03726,4.04615 9.03726,9.03733 z"
       id="path4211"
       stroke-miterlimit="4"
       inkscape:connector-curvature="0"
       style="fill:#ff0000;stroke:#484848;stroke-width:2;stroke-linecap:round;stroke-linejoin:round;stroke-miterlimit:4;stroke-dashoffset:0" />
    <rect
       id="rect4213"
       width="114.72964"
       height="70.171028"
       x="113.60731"
       y="196.58711"
       ry="3.393851"
       stroke-miterlimit="4"
       style="fill:#dbfffc;stroke:#484848;stroke-width:2.8068409;stroke-linecap:round;stroke-linejoin:round;stroke-miterlimit:4;stroke-dashoffset:0" />
    <path
       d="m 114.30899,237.2863 h 13.33249 l 9.82394,-30.17354 5.96454,30.5244 7.36798,-13.3325 11.22736,29.82269 6.66623,-19.29703 15.43765,-0.35086 6.31537,-23.15643 6.3154,37.5415 6.3154,-24.55987 3.50854,12.6308 h 20.34961"
       id="path4215"
       stroke-miterlimit="4"
       inkscape:connector-curvature="0"
       style="fill:none;stroke:#00a799;stroke-width:2.8068409;stroke-linecap:round;stroke-linejoin:round;stroke-miterlimit:4" />
    <path
       d="m 117.00995,263.51621 0.0257,-57.89452 c -0.12741,-3.82558 2.92753,-5.79904 5.95731,-5.92793 l 98.44168,-0.2484 -94.57272,5.72474 c -3.36633,0.42556 -4.78089,2.2452 -4.87537,5.00776 l -5.1521,43.33889 10e-5,6e-5 0.17541,9.9994 z"
       id="path4280"
       inkscape:connector-curvature="0"
       style="opacity:0.95;fill:#ffffff" />
    <rect
       ry="3.393851"
       y="196.58711"
       x="113.60731"
       height="70.171028"
       width="114.72964"
       id="rect4278"
       stroke-miterlimit="4"
       style="fill:none;stroke:#484848;stroke-width:2.8068409;stroke-linecap:round;stroke-linejoin:round;stroke-miterlimit:4;stroke-dashoffset:0" />
    <path
       id="path4282"
       d="m 117.17596,280.55588 c 4.26566,-2.31677 8.88099,-2.08704 13.75425,0.0213 -4.20987,-4.48627 -8.63434,-6.40875 -13.75425,-0.0213 z"
       inkscape:connector-curvature="0"
       style="opacity:0.62980801;fill:#ffffff" />
    <path
       d="m 212.69144,280.49387 c 4.26565,-2.31678 8.88098,-2.08704 13.75424,0.0213 -4.2099,-4.48627 -8.63434,-6.40879 -13.75424,-0.0213 z"
       id="path4284"
       inkscape:connector-curvature="0"
       style="opacity:0.62980801;fill:#ffffff" />
    <g
       id="g4328">
      <rect
         transform="matrix(1.40342,0,0,1.40342,-142.699,-240.717)"
         id="rect4249"
         width="36.769554"
         height="12.727922"
         x="189.01863"
         y="424.33154"
         ry="6.3639612"
         stroke-miterlimit="4"
         style="fill:#a4a4a4;stroke:#484848;stroke-width:2;stroke-linecap:round;stroke-linejoin:round;stroke-miterlimit:4;stroke-dashoffset:0" />
      <rect
         transform="matrix(1.40342,0,0,1.40342,-142.699,-240.717)"
         ry="6.3639612"
         y="412.33154"
         x="189.01863"
         height="12.727922"
         width="36.769554"
         id="rect4247"
         stroke-miterlimit="4"
         style="fill:#a4a4a4;stroke:#484848;stroke-width:2;stroke-linecap:round;stroke-linejoin:round;stroke-miterlimit:4;stroke-dashoffset:0" />
      <rect
         transform="matrix(1.40342,0,0,1.40342,-142.699,-240.717)"
         id="rect4245"
         width="36.769554"
         height="12.727922"
         x="189.01863"
         y="400.33154"
         ry="6.3639612"
         stroke-miterlimit="4"
         style="fill:#a4a4a4;stroke:#484848;stroke-width:2;stroke-linecap:round;stroke-linejoin:round;stroke-miterlimit:4;stroke-dashoffset:0" />
      <rect
         transform="matrix(1.40342,0,0,1.40342,-142.699,-240.717)"
         ry="6.3639612"
         y="387.95718"
         x="188.66508"
         height="12.727922"
         width="36.769554"
         id="rect4241"
         stroke-miterlimit="4"
         style="fill:#a4a4a4;stroke:#484848;stroke-width:2;stroke-linecap:round;stroke-linejoin:round;stroke-miterlimit:4;stroke-dashoffset:0" />
      <path
         id="path4314"
         d="m 158.0506,303.08341 c 3.24237,5.62829 5.93965,11.31573 0,17.86261 3.73083,5.17865 7.43841,10.36099 -0.24806,17.36645 7.18023,6.70984 4.36766,11.75424 0.49617,16.62213 6.37385,10.74567 0.71871,12.29267 0,17.61453 l 14.88551,0.24811 -1.24046,-3.7214 2.97709,-4.46564 -1.48852,-6.45038 -4.71376,-3.72137 4.96182,-3.72141 0.99239,-5.45801 -5.20993,-6.94656 3.47326,-3.22519 1.24045,-6.20233 -5.95416,-8.18701 4.46565,-3.4733 1.73662,-5.20993 -3.22519,-6.20227 -3.22519,-2.72904 -8.68323,0.7443 -1.24046,-0.7443 z"
         inkscape:connector-curvature="0"
         style="fill:#808080" />
      <path
         d="m 138.00844,303.25885 c -3.24237,5.62826 -5.9397,11.3157 0,17.86258 -3.73084,5.17868 -7.43842,10.36102 0.24806,17.36645 -7.18024,6.70987 -4.36766,11.75425 -0.49617,16.62217 -6.37386,10.74566 -0.71872,12.29263 0,17.61453 l -14.88551,0.24811 1.24045,-3.72141 -2.97709,-4.46567 1.48853,-6.45038 4.71375,-3.72137 -4.96182,-3.72141 -0.99239,-5.458 5.20993,-6.94657 -3.4733,-3.22519 -1.24046,-6.2023 5.95422,-8.18701 -4.46565,-3.47333 -1.73663,-5.20993 3.22519,-6.20227 3.2252,-2.729 8.68322,0.74426 z"
         id="path4326"
         inkscape:connector-curvature="0"
         style="opacity:0.62999998;fill:#ffffff" />
      <rect
         transform="matrix(1.40342,0,0,1.40342,-142.699,-240.717)"
         ry="6.0514612"
         y="424.95654"
         x="189.01863"
         height="12.102922"
         width="36.769554"
         id="rect4324"
         stroke-miterlimit="4"
         style="fill:none;stroke:#484848;stroke-width:2;stroke-linecap:round;stroke-linejoin:round;stroke-miterlimit:4;stroke-dashoffset:0" />
      <rect
         transform="matrix(1.40342,0,0,1.40342,-142.699,-240.717)"
         id="rect4322"
         width="36.769554"
         height="11.977922"
         x="189.01863"
         y="413.08154"
         ry="5.9889612"
         stroke-miterlimit="4"
         style="fill:none;stroke:#484848;stroke-width:2;stroke-linecap:round;stroke-linejoin:round;stroke-miterlimit:4;stroke-dashoffset:0" />
      <rect
         transform="matrix(1.40342,0,0,1.40342,-142.699,-240.717)"
         ry="6.1139612"
         y="400.83154"
         x="189.01863"
         height="12.227922"
         width="36.769554"
         id="rect4320"
         stroke-miterlimit="4"
         style="fill:none;stroke:#484848;stroke-width:2;stroke-linecap:round;stroke-linejoin:round;stroke-miterlimit:4;stroke-dashoffset:0" />
      <rect
         transform="matrix(1.40342,0,0,1.40342,-142.699,-240.717)"
         id="rect4318"
         width="36.769554"
         height="12.727922"
         x="188.66508"
         y="387.95718"
         ry="6.3639612"
         stroke-miterlimit="4"
         style="fill:none;stroke:#484848;stroke-width:2;stroke-linecap:round;stroke-linejoin:round;stroke-miterlimit:4;stroke-dashoffset:0" />
      <path
         id="path4259"
         d="m 174.67277,398.10263 c -5.40458,0.44183 -86.570163,1.42114 -88.32075,-0.49618 0,-19.04541 20.62562,-34.48478 46.06856,-34.48478 14.46707,0 32.28332,2.51084 40.72915,6.84571 1.41353,2.59478 1.52305,19.91925 1.52304,28.13525 z"
         stroke-miterlimit="4"
         inkscape:connector-curvature="0"
         style="fill:#a4a4a4;stroke:#484848;stroke-width:2;stroke-linecap:round;stroke-linejoin:round;stroke-miterlimit:4;stroke-dashoffset:0" />
      <path
         id="path4308"
         d="m 86.600128,394.13315 c 44.693362,-1.57813 87.697982,5.23044 78.645142,-26.79395 l 8.68323,2.97708 0.74428,28.28251 -87.824543,-0.24811 z"
         inkscape:connector-curvature="0"
         style="fill:#808080" />
      <path
         d="m 174.67277,398.10263 c -5.40458,0.44183 -86.570163,1.42114 -88.32075,-0.49618 0,-19.04541 20.62562,-34.48478 46.06856,-34.48478 14.46707,0 32.28332,2.51084 40.72915,6.84571 1.41353,2.59478 1.52305,19.91925 1.52304,28.13525 z"
         id="path4310"
         stroke-miterlimit="4"
         inkscape:connector-curvature="0"
         style="fill:none;stroke:#484848;stroke-width:2;stroke-linecap:round;stroke-linejoin:round;stroke-miterlimit:4;stroke-dashoffset:0" />
      <path
         d="m 94.932419,384.27603 c 9.938291,-8.4386 19.978691,-14.99945 44.186991,-17.03934 -18.05005,-3.04147 -36.41897,1.95621 -44.186991,17.03934 z"
         id="path4312"
         inkscape:connector-curvature="0"
         style="opacity:0.62980801;fill:#ffffff" />
    </g>
  </g>
</svg>
