<?xml version="1.0" encoding="iso-8859-1"?>
<!-- Generator: Adobe Illustrator 19.0.0, SVG Export Plug-In . SVG Version: 6.00 Build 0)  -->
<svg version="1.1" id="Layer_1" xmlns="http://www.w3.org/2000/svg" xmlns:xlink="http://www.w3.org/1999/xlink" x="0px" y="0px"
	 viewBox="0 0 512 512" style="enable-background:new 0 0 512 512;" xml:space="preserve">
<path style="fill:#92E03F;" d="M140.912,468.191h360.636V222.776C337.693,222.776,197.589,324.473,140.912,468.191z"/>
<g>
	<circle style="fill:#1EB615;" cx="198.528" cy="196.605" r="76.277"/>
	<circle style="fill:#1EB615;" cx="86.725" cy="339.828" r="76.277"/>
</g>
<path d="M501.548,212.327c-81.454,0-159.763,24.439-226.462,70.675c-24.265,16.821-46.39,36.077-66.106,57.413v-57.74
	c42.908-5.18,76.277-41.791,76.277-86.073c0-47.821-38.904-86.725-86.725-86.725s-86.725,38.904-86.725,86.725
	c0,44.282,33.368,80.894,76.277,86.073v82.301c-22.072,28.171-40.323,59.308-54.211,92.767H97.177v-31.841
	c42.908-5.179,76.277-41.791,76.277-86.073c0-47.821-38.904-86.725-86.725-86.725S0.003,292.008,0.003,339.829
	c0,44.282,33.368,80.894,76.277,86.073v31.841H10.452c-5.77,0-10.449,4.678-10.449,10.449s4.678,10.449,10.449,10.449h491.096
	c5.77,0,10.449-4.678,10.449-10.449V222.776C511.997,217.005,507.318,212.327,501.548,212.327z M132.703,196.601
	c0-36.297,29.531-65.828,65.828-65.828s65.828,29.531,65.828,65.828c0,32.741-24.03,59.967-55.379,64.99v-11.013l30.027-30.028
	c4.08-4.08,4.08-10.696,0-14.777c-4.081-4.08-10.695-4.08-14.778,0.001l-25.699,25.699l-13.835-13.836
	c-4.08-4.08-10.694-4.08-14.778-0.001c-4.08,4.08-4.08,10.696,0,14.777l18.164,18.165v11.013
	C156.734,256.568,132.703,229.343,132.703,196.601z M20.901,339.829c0-36.297,29.531-65.828,65.828-65.828
	s65.828,29.531,65.828,65.828c0,32.741-24.03,59.967-55.379,64.99v-11.013l30.027-30.028c4.08-4.08,4.08-10.697,0-14.777
	c-4.081-4.08-10.695-4.08-14.778,0.001l-25.699,25.699l-13.835-13.836c-4.079-4.08-10.693-4.08-14.778,0
	c-4.08,4.08-4.08,10.697,0,14.777l18.164,18.165v11.013C44.931,399.796,20.901,372.57,20.901,339.829z M205.122,376.727
	c1.155-0.94,2.098-2.127,2.766-3.475c52.076-64.848,124.209-110.54,205.698-129.808c-16.192,11.196-32.325,25.32-48.162,42.275
	c-40.823,43.703-77.045,103.071-105.006,172.024H156.597C169.573,428.335,185.935,401.205,205.122,376.727z M465.01,239.876
	c-17.41,20.805-35.482,49.967-48.864,75.044c-13.705,25.682-44.668,88.75-49.778,142.823h-83.339
	C330.495,344.625,399.558,262.973,465.01,239.876z M387.392,457.742c3.891-35.376,21.055-84.007,47.191-132.985
	c21.038-39.424,42.176-68.386,56.516-82.495v215.479L387.392,457.742L387.392,457.742z"/>
<path d="M463.235,150.324c2.728,0,5.454-1.063,7.503-3.175c28.809-29.717,40.338-67.237,40.814-68.82
	c1.665-5.525-1.466-11.354-6.991-13.018c-5.527-1.662-11.354,1.466-13.018,6.991c-0.102,0.339-10.501,34.196-35.809,60.3
	c-4.018,4.143-3.914,10.758,0.229,14.775C457.992,149.345,460.615,150.324,463.235,150.324z"/>
<path d="M422.24,177.446c1.159,0,2.34-0.194,3.495-0.605c4.817-1.709,9.584-3.804,14.168-6.224c5.102-2.696,7.054-9.017,4.358-14.12
	c-2.696-5.102-9.015-7.055-14.12-4.358c-3.693,1.951-7.527,3.636-11.396,5.009c-5.439,1.93-8.283,7.904-6.352,13.342
	C413.913,174.772,417.94,177.446,422.24,177.446z"/>
<path d="M7.042,182.367c1.13,0.39,2.279,0.575,3.411,0.575c4.332,0,8.383-2.718,9.876-7.044
	c0.419-1.216,43.06-121.641,136.627-121.641c49.74,0,86.619,33.92,122.285,66.724c33.9,31.18,65.922,60.632,107.753,61.915
	c0.11,0.003,0.217,0.005,0.327,0.005c5.621,0,10.264-4.47,10.437-10.128c0.178-5.768-4.355-10.587-10.123-10.764
	c-34.053-1.046-63.291-27.937-94.247-56.408c-36.815-33.862-78.544-72.241-136.432-72.241c-45.185,0-86.658,23.708-119.93,68.564
	C12.484,135.006,1.049,167.705,0.575,169.08C-1.308,174.535,1.588,180.484,7.042,182.367z"/>
<g>
</g>
<g>
</g>
<g>
</g>
<g>
</g>
<g>
</g>
<g>
</g>
<g>
</g>
<g>
</g>
<g>
</g>
<g>
</g>
<g>
</g>
<g>
</g>
<g>
</g>
<g>
</g>
<g>
</g>
</svg>
